<svg width="138" height="927" viewBox="0 0 138 927" fill="none" xmlns="http://www.w3.org/2000/svg">
<path d="M107.3 504.347C104.5 505.647 98.1 509.547 93 512.947C80.3 521.547 76.9 522.947 68.6 522.947C62.9 522.947 59.1 522.047 46.6 517.747C33.9 513.447 30.3 512.647 24 512.547C15.5 512.447 9.9 514.547 3.7 519.947L0 523.147V628.647V734.147L3.5 731.547C15 722.747 24.3 722.347 47.2 729.847C70.4 737.347 74.5 737.047 91.4 726.047C96.7 722.647 103.3 718.747 106.2 717.447C115.8 712.947 127.4 714.547 134.8 721.247L137 723.247V617.247V511.147L133.8 508.347C125.7 501.647 116.3 500.147 107.3 504.347Z" fill="#EC6B40"/>
<path d="M0 107.4V134.8L4.9 136.9C14.8 141.1 22.1 139.5 40.7 128.8C62.3 116.4 65.5 116.3 99 126.6C106.1 128.7 109 129.1 116.5 128.8C124.2 128.5 126.3 128 131 125.5L136.5 122.5L136.8 101.2L137 80.0001H68.5H0V107.4Z" fill="#E2E046"/>
<path d="M58.0264 119.769C54.4264 120.869 49.8265 123.369 39.3265 129.569C29.6265 135.369 20.1264 138.869 14.4264 138.869C12.5264 138.869 8.52645 137.969 5.52645 136.969L0.026449 135.069V236.269C0.026449 350.169 -0.873551 338.469 7.82645 342.869C17.6264 347.969 25.5264 346.469 43.5265 335.869C50.1265 332.069 57.0264 328.369 58.9264 327.769C65.1264 325.669 77.3264 327.269 91.5264 331.869C111.726 338.469 122.426 337.769 133.526 329.269L137.026 326.669V224.469V122.169L130.826 125.269C125.026 128.169 123.926 128.369 114.026 128.269C104.526 128.169 102.326 127.769 90.5264 123.969C77.1264 119.569 63.7264 117.869 58.0264 119.769Z" fill="#15406B"/>
<path d="M60 321.303C57.5 321.903 50.1 325.703 43.5 329.603C24.4 341.003 16.8 342.103 5.6 335.403L0 332.003V428.003V524.003L4.3 520.503C10.1 515.803 15.8 513.903 24.3 513.903C30 513.903 33.9 514.803 45.9 518.803C70.9 527.203 73.8 526.903 92.4 514.603C104.7 506.403 112 503.003 117.6 502.903C122.1 502.903 128.9 505.503 133.3 509.003L137 512.003V416.403C137 340.203 136.7 320.903 135.8 321.503C135.1 321.903 133.1 323.303 131.4 324.603C122.7 331.103 110.7 331.703 93.8 326.303C81.4 322.403 70.9 319.903 67 320.003C65.6 320.003 62.5 320.603 60 321.303Z" fill="#ECECEC"/>
<path d="M109.4 704.9C106.6 705.9 100.1 709.4 94.9 712.7C79.1 722.8 77.6 723.4 68.5 723.4C61.5 723.4 58.7 722.7 46.5 718.5C33.9 714.1 31.6 713.6 24 713.6C14.8 713.7 11.4 714.7 4.2 719.9L0 723V825V927H68.5H137V819.6V712.1L133.3 709C129.4 705.9 121.6 703 117.1 703C115.7 703.1 112.2 703.9 109.4 704.9Z" fill="#ECECEC"/>
<path d="M0 63.4652V126.853L4.47347 128.176C6.85 128.877 11.8827 129.422 15.6571 129.422C22.7867 129.422 27.8194 128.254 48.2296 121.869C61.2306 117.742 69.6184 117.664 91.5663 121.479C110.439 124.672 120.784 124.906 130.43 122.336L137 120.545V60.2725V2.17557e-06H68.5H0V63.4652Z" fill="#E2E046"/>
</svg>
