<svg width="1325" height="2466" viewBox="0 0 1325 2466" fill="none" xmlns="http://www.w3.org/2000/svg">
<g clip-path="url(#clip0_0_1)">
<path d="M1 11.9777V23.9555L21.3963 50.1223C75.6025 119.593 101.695 143.733 149.654 168.241C227.747 208.413 319.99 222.602 427.3 210.809C478.75 205.096 522.115 196.251 625.75 170.453C768.891 134.704 831.366 125.121 901.375 127.701C966.974 130.281 987.37 135.072 1127.39 181.509C1223.49 213.204 1262.44 223.523 1317.2 231.079L1324 232V115.908V0H662.5H1V11.9777Z" fill="#E2E046"/>
<path d="M1 380.148V740.5L8.5 738C42.909 730.826 84.7665 723.5 135 723.5C203.818 723.5 257.664 729.899 381.5 750.5C518.4 773.309 591.55 780.179 660 776.5C729.186 772.637 763.049 763.632 877.5 728.5C1013.66 686.745 1065.87 676.443 1138 673.5C1192.84 671.108 1263.32 680.709 1313 698L1323 702.5L1324 466.048V232.811L1311.67 231.523C1293.09 229.684 1248.56 220.303 1218.75 211.842C1204.21 207.795 1156.19 192.528 1112.03 177.812C982.854 135.138 959.485 130.172 884.227 130.356C812.649 130.356 768.119 137.345 644.835 168.063C504.255 203.013 456.782 211.842 389.252 215.521C303.137 220.487 219.231 205.22 153.357 172.478C104.227 148.014 70.9221 117.664 17.5605 48.3179C10.2003 38.753 3.39207 30.1077 2.65605 29.0041C1.73602 28.0844 1 182.043 1 380.148Z" fill="#15406B"/>
<path d="M1 1252.44V1502.07L32.6058 1533.28C84.057 1583.87 112.723 1602.88 166.93 1621.72C222.792 1641.47 283.247 1650.52 357.484 1650.7C435.028 1650.7 482.253 1644.61 637.158 1614.52C777.179 1587.19 847.373 1579.62 917.751 1583.87C976.736 1587.37 1005.59 1593.1 1123.74 1624.3C1209.55 1647.2 1256.41 1656.98 1303.45 1662.15L1324.03 1664.37V1416.77V1169.17L1293.16 1137.78C1274.97 1119.32 1254.02 1100.3 1242.26 1091.26C1196.32 1056.54 1131.09 1032.73 1052.08 1021.65C1023.04 1017.59 942.558 1015.92 907.644 1018.69C851.967 1023.13 809.703 1029.96 698.348 1052.11C583.134 1075.01 539.584 1081.65 479.68 1085.53C405.076 1090.15 347.193 1082.95 249.068 1056.73C105.556 1018.32 63.2928 1008.91 7.98267 1003.74L1 1003V1252.44Z" fill="#EC6B40"/>
<path d="M1322.16 663.893C1322.16 684.183 1321.8 700.785 1321.24 700.785C1320.69 700.785 1312.06 698.387 1302.13 695.436C1256.2 681.601 1217.24 675.329 1170.57 673.669C1093.76 671.087 1027.98 683.261 893.106 724.396C747.393 769.036 722.219 774.201 642.104 775.861C567.501 777.522 524.504 773.279 385.038 750.775C341.121 743.58 292.244 736.202 276.625 733.988C179.238 721.076 103.9 719.969 31.8701 730.299C17.9051 732.328 2.65389 736.447 1.00014 737C-1.38861 737.923 1.00014 752.25 1.00014 877.869V1019.35L14.4139 1020.64C55.9414 1024.52 116.211 1037.25 203.125 1060.86C341.121 1098.3 381.179 1104.76 460.375 1102.36C516.603 1100.52 565.848 1094.24 649.086 1078.01C672.055 1073.58 714.134 1065.28 742.431 1059.75C801.415 1048.31 842.208 1041.67 883 1037.06C918.648 1033.19 1008.5 1032.63 1037.35 1036.14C1132.9 1047.94 1201.26 1073.22 1253.44 1116.01C1260.61 1121.91 1279.35 1139.81 1295.34 1155.85L1324 1185V905.908C1324 752.619 1323.08 627 1323.08 627C1322.53 627 1322.16 643.602 1322.16 663.893Z" fill="#ECECEC"/>
</g>
<path d="M0 1983.5V2466H662.5H1325L1324.53 2064.23L1323.81 1662.47L1291.76 1658.43C1250.44 1653.21 1204.14 1643.23 1136.22 1625.42C989.951 1586.72 963.356 1582.21 884.521 1582.21C810.197 1582.21 762.469 1588.38 615.721 1616.88C496.281 1640.15 449.265 1646.32 379.928 1648.46C290.408 1651.07 217.509 1640.15 151.022 1614.5C105.668 1596.93 75.2733 1576.03 30.3943 1531.16L0 1501V1983.5Z" fill="#ECECEC"/>
<defs>
<clipPath id="clip0_0_1">
<rect width="1325" height="1691" fill="white"/>
</clipPath>
</defs>
</svg>
