<svg width="1845" height="2354" viewBox="0 0 1845 2354" fill="none" xmlns="http://www.w3.org/2000/svg">
<g clip-path="url(#clip0_133_62)">
<mask id="mask0_133_62" style="mask-type:luminance" maskUnits="userSpaceOnUse" x="-27" y="-506" width="2011" height="2113">
<path d="M1984 -506H-27V1607H1984V-506Z" fill="white"/>
</mask>
<g mask="url(#mask0_133_62)">
<path d="M-27 73.7656V88.7326L3.95619 121.429C86.2269 208.237 125.828 238.401 198.618 269.025C317.142 319.223 457.143 336.953 620.011 322.217C698.098 315.078 763.915 304.026 921.205 271.789C1138.46 227.119 1233.28 215.145 1339.53 218.368C1439.09 221.592 1470.05 227.579 1682.56 285.605C1828.42 325.209 1887.53 338.103 1970.64 347.545L1980.96 348.696V203.632V58.7988H976.982H-27V73.7656Z" fill="#E2E046"/>
<path d="M-25.4824 458.579V811.133L-14.0994 808.687C38.1244 801.668 101.653 794.501 177.894 794.501C282.342 794.501 364.066 800.762 552.016 820.917C759.794 843.232 870.816 849.954 974.705 846.354C1079.71 842.575 1131.11 833.765 1304.81 799.393C1511.47 758.541 1590.71 748.462 1700.18 745.583C1783.42 743.243 1890.39 752.636 1965.79 769.553L1980.96 773.955L1982.48 542.62V314.43L1963.77 313.17C1935.57 311.371 1867.98 302.193 1822.74 293.915C1800.67 289.955 1727.79 275.019 1660.77 260.621C1464.71 218.871 1429.24 214.012 1315.02 214.192C1206.39 214.192 1138.8 221.03 951.689 251.083C738.326 285.277 666.274 293.915 563.782 297.514C433.082 302.373 305.735 287.436 205.755 255.403C131.189 231.468 80.6409 201.775 -0.347959 133.929C-11.5188 124.571 -21.8519 116.113 -22.969 115.033C-24.3653 114.134 -25.4824 264.761 -25.4824 458.579Z" fill="#15406B"/>
<path d="M1980.12 677.915C1980.12 701.691 1979.57 721.145 1978.72 721.145C1977.89 721.145 1964.79 718.335 1949.71 714.877C1879.99 698.665 1820.85 691.316 1750.01 689.37C1633.41 686.345 1533.56 700.61 1328.82 748.812C1107.63 801.122 1069.41 807.174 947.8 809.119C834.553 811.066 769.284 806.094 557.577 779.723C490.911 771.292 416.716 762.647 393.007 760.052C245.175 744.922 130.812 743.625 21.4718 755.73C0.273134 758.107 -22.878 762.934 -25.3884 763.582C-29.0145 764.663 -25.3884 781.452 -25.3884 928.652V1094.44L-5.02647 1095.95C58.0118 1100.5 149.5 1115.42 281.435 1143.08C490.911 1186.95 551.719 1194.52 671.937 1191.71C757.291 1189.56 832.044 1182.2 958.398 1163.18C993.265 1157.99 1057.14 1148.26 1100.1 1141.78C1189.63 1128.38 1251.56 1120.59 1313.48 1115.19C1367.59 1110.66 1503.98 1110 1547.78 1114.11C1692.82 1127.94 1796.59 1157.56 1875.8 1207.71C1886.68 1214.62 1915.13 1235.6 1939.4 1254.39L1982.91 1288.55V961.508C1982.91 781.884 1981.51 634.684 1981.51 634.684C1980.68 634.684 1980.12 654.138 1980.12 677.915Z" fill="#ECECEC"/>
<path d="M-25.9102 1334.03V1619.56L22.0785 1655.26C100.199 1713.12 143.724 1734.87 226.029 1756.41C310.847 1779 402.639 1789.36 515.357 1789.56C633.095 1789.56 704.799 1782.6 939.999 1748.18C1152.6 1716.92 1259.18 1708.26 1366.04 1713.12C1455.6 1717.12 1499.41 1723.68 1678.8 1759.37C1809.09 1785.56 1880.24 1796.75 1951.66 1802.66L1982.91 1805.2V1521.99V1238.79L1936.04 1202.88C1908.42 1181.77 1876.61 1160.01 1858.75 1149.67C1789 1109.96 1689.96 1082.72 1570 1070.05C1525.9 1065.41 1403.7 1063.5 1350.69 1066.67C1266.15 1071.74 1201.98 1079.56 1032.91 1104.89C857.972 1131.08 791.848 1138.68 700.893 1143.12C587.618 1148.4 499.731 1140.17 350.743 1110.18C132.842 1066.24 68.672 1055.48 -15.308 1049.57L-25.9102 1048.72V1334.03Z" fill="#EC6B40"/>
</g>
<path d="M0 1892.5V2354H922.5H1845L1844.35 1969.72L1843.34 1585.44L1798.71 1581.58C1741.18 1576.59 1676.71 1567.04 1582.13 1550C1378.46 1512.99 1341.43 1508.68 1231.65 1508.68C1128.16 1508.68 1061.7 1514.58 857.362 1541.84C691.048 1564.09 625.58 1570 529.032 1572.04C404.379 1574.54 302.871 1564.09 210.291 1539.56C147.138 1522.75 104.815 1502.76 42.3226 1459.85L0 1431V1892.5Z" fill="#ECECEC"/>
<path d="M-82 1386.32V1595.8L-34.0071 1621.99C44.1207 1664.45 87.6496 1680.4 169.962 1696.21C254.788 1712.78 346.588 1720.38 459.315 1720.53C577.065 1720.53 648.775 1715.42 883.996 1690.17C1096.62 1667.23 1203.2 1660.88 1310.07 1664.45C1399.64 1667.38 1443.45 1672.19 1622.86 1698.37C1753.16 1717.59 1824.32 1725.8 1895.75 1730.14L1927 1732V1524.22V1316.44L1880.12 1290.1C1852.5 1274.61 1820.69 1258.65 1802.83 1251.06C1733.07 1221.93 1634.02 1201.95 1514.05 1192.65C1469.95 1189.24 1347.74 1187.84 1294.72 1190.17C1210.18 1193.89 1146 1199.62 976.912 1218.21C801.961 1237.43 735.831 1243 644.868 1246.26C531.583 1250.13 443.689 1244.09 294.687 1222.09C76.7666 1189.86 12.5906 1181.96 -71.3969 1177.62L-82 1177V1386.32Z" fill="#EC6B40"/>
<path d="M1924.12 719.231C1924.12 743.007 1923.57 762.461 1922.72 762.461C1921.89 762.461 1908.79 759.651 1893.71 756.193C1823.99 739.982 1764.85 732.632 1694.01 730.687C1577.41 727.661 1477.56 741.927 1272.82 790.129C1051.63 842.438 1013.41 848.49 891.8 850.436C778.553 852.382 713.284 847.41 501.577 821.04C434.911 812.609 360.716 803.963 337.007 801.369C189.175 786.238 74.8124 784.941 -34.5282 797.046C-55.7269 799.424 -78.878 804.25 -81.3884 804.898C-85.0145 805.98 -81.3884 822.768 -81.3884 969.969V1135.76L-61.0265 1137.27C2.0118 1141.81 93.5003 1156.73 225.435 1184.4C434.911 1228.27 495.719 1235.84 615.937 1233.03C701.291 1230.87 776.044 1223.51 902.398 1204.49C937.265 1199.3 1001.14 1189.58 1044.1 1183.1C1133.63 1169.69 1195.56 1161.91 1257.48 1156.51C1311.59 1151.97 1447.98 1151.32 1491.78 1155.43C1636.82 1169.26 1740.59 1198.88 1819.8 1249.02C1830.68 1255.94 1859.13 1276.91 1883.4 1295.71L1926.91 1329.87V1002.82C1926.91 823.201 1925.51 676 1925.51 676C1924.68 676 1924.12 695.454 1924.12 719.231Z" fill="#ECECEC"/>
</g>
<defs>
<clipPath id="clip0_133_62">
<rect width="1845" height="2354" fill="white"/>
</clipPath>
</defs>
</svg>
