<svg width="467" height="76" viewBox="0 0 467 76" fill="none" xmlns="http://www.w3.org/2000/svg">
<rect x="2" y="2" width="453.411" height="59.2895" rx="11" fill="#E2E046" stroke="black" stroke-width="4"/>
<rect x="11.5894" y="14.4661" width="453.411" height="59.2895" rx="11" fill="#E2E046" stroke="black" stroke-width="4"/>
<path d="M49.6838 50.2084V53.7679H39.4533V50.2084H49.6838ZM41.1013 34.5726V53.7679H36.4738V34.5726H41.1013ZM48.3654 42.1927V45.6337H39.4533V42.1927H48.3654ZM49.7233 34.5726V38.1454H39.4533V34.5726H49.7233ZM58.8981 53.7679H54.6398L54.6661 50.2084H58.8981C59.777 50.2084 60.5197 49.9974 61.1261 49.5756C61.7413 49.1537 62.2072 48.5253 62.5236 47.6903C62.8488 46.8466 63.0114 45.8094 63.0114 44.579V43.7484C63.0114 42.8256 62.9191 42.017 62.7345 41.3226C62.5587 40.6195 62.295 40.035 61.9435 39.5692C61.5919 39.0946 61.1525 38.7386 60.6251 38.5013C60.1066 38.264 59.5089 38.1454 58.8322 38.1454H54.5607V34.5726H58.8322C60.1329 34.5726 61.3239 34.7968 62.4049 35.245C63.4947 35.6844 64.4352 36.3173 65.2262 37.1434C66.026 37.9608 66.6412 38.932 67.0719 40.057C67.5114 41.1732 67.7311 42.4125 67.7311 43.7748V44.579C67.7311 45.9325 67.5114 47.1718 67.0719 48.2968C66.6412 49.4218 66.0304 50.3929 65.2394 51.2103C64.4484 52.0277 63.5123 52.6605 62.4313 53.1088C61.359 53.5482 60.1813 53.7679 58.8981 53.7679ZM57.2897 34.5726V53.7679H52.6622V34.5726H57.2897ZM81.6387 34.5726H86.2662V47.1102C86.2662 48.6044 85.9541 49.87 85.3301 50.9071C84.7061 51.9354 83.8316 52.7133 82.7066 53.2406C81.5816 53.7679 80.2588 54.0316 78.7383 54.0316C77.2354 54.0316 75.9126 53.7679 74.7701 53.2406C73.6363 52.7133 72.7486 51.9354 72.107 50.9071C71.4742 49.87 71.1578 48.6044 71.1578 47.1102V34.5726H75.7984V47.1102C75.7984 47.9012 75.9126 48.5472 76.1412 49.0482C76.3697 49.5404 76.7037 49.9008 77.1431 50.1293C77.5826 50.3578 78.1143 50.472 78.7383 50.472C79.3711 50.472 79.9029 50.3578 80.3335 50.1293C80.7642 49.9008 81.0894 49.5404 81.3091 49.0482C81.5289 48.5472 81.6387 47.9012 81.6387 47.1102V34.5726ZM101.176 47.2684H105.79C105.728 48.6044 105.368 49.7821 104.709 50.8016C104.05 51.8212 103.136 52.6166 101.967 53.1879C100.807 53.7504 99.4355 54.0316 97.8535 54.0316C96.5703 54.0316 95.4233 53.8163 94.4126 53.3856C93.4106 52.955 92.5581 52.3353 91.8549 51.5267C91.1606 50.7181 90.6289 49.7382 90.2597 48.5868C89.8994 47.4354 89.7192 46.139 89.7192 44.6976V43.6561C89.7192 42.2147 89.9082 40.9183 90.2861 39.767C90.6728 38.6068 91.2177 37.6224 91.9209 36.8138C92.6328 35.9965 93.4853 35.3724 94.4785 34.9418C95.4716 34.5111 96.5747 34.2958 97.7876 34.2958C99.4575 34.2958 100.868 34.5946 102.019 35.1923C103.171 35.7899 104.063 36.6117 104.696 37.6576C105.329 38.6947 105.702 39.8768 105.816 41.204H101.202C101.185 40.4833 101.061 39.8812 100.833 39.3978C100.604 38.9056 100.244 38.5365 99.7519 38.2904C99.2597 38.0443 98.6049 37.9213 97.7876 37.9213C97.2163 37.9213 96.7197 38.0267 96.2978 38.2377C95.8759 38.4486 95.5244 38.7826 95.2431 39.2396C94.9619 39.6967 94.7509 40.2899 94.6103 41.0194C94.4785 41.7401 94.4126 42.6102 94.4126 43.6298V44.6976C94.4126 45.7172 94.4741 46.5873 94.5971 47.308C94.7202 48.0287 94.9179 48.6176 95.1904 49.0746C95.4629 49.5316 95.8144 49.87 96.2451 50.0897C96.6845 50.3007 97.2207 50.4061 97.8535 50.4061C98.5566 50.4061 99.1499 50.2963 99.6333 50.0765C100.117 49.848 100.49 49.5052 100.754 49.0482C101.018 48.5824 101.158 47.9891 101.176 47.2684ZM117.193 38.6068L112.513 53.7679H107.542L114.596 34.5726H117.746L117.193 38.6068ZM121.069 53.7679L116.375 38.6068L115.769 34.5726H118.959L126.052 53.7679H121.069ZM120.884 46.6093V50.182H111.036V46.6093H120.884ZM139.169 47.2684H143.783C143.721 48.6044 143.361 49.7821 142.702 50.8016C142.043 51.8212 141.129 52.6166 139.96 53.1879C138.8 53.7504 137.429 54.0316 135.846 54.0316C134.563 54.0316 133.416 53.8163 132.406 53.3856C131.404 52.955 130.551 52.3353 129.848 51.5267C129.154 50.7181 128.622 49.7382 128.253 48.5868C127.892 47.4354 127.712 46.139 127.712 44.6976V43.6561C127.712 42.2147 127.901 40.9183 128.279 39.767C128.666 38.6068 129.211 37.6224 129.914 36.8138C130.626 35.9965 131.478 35.3724 132.471 34.9418C133.465 34.5111 134.568 34.2958 135.781 34.2958C137.45 34.2958 138.861 34.5946 140.013 35.1923C141.164 35.7899 142.056 36.6117 142.689 37.6576C143.322 38.6947 143.695 39.8768 143.809 41.204H139.195C139.178 40.4833 139.054 39.8812 138.826 39.3978C138.597 38.9056 138.237 38.5365 137.745 38.2904C137.253 38.0443 136.598 37.9213 135.781 37.9213C135.209 37.9213 134.713 38.0267 134.291 38.2377C133.869 38.4486 133.517 38.7826 133.236 39.2396C132.955 39.6967 132.744 40.2899 132.603 41.0194C132.471 41.7401 132.406 42.6102 132.406 43.6298V44.6976C132.406 45.7172 132.467 46.5873 132.59 47.308C132.713 48.0287 132.911 48.6176 133.183 49.0746C133.456 49.5316 133.807 49.87 134.238 50.0897C134.678 50.3007 135.214 50.4061 135.846 50.4061C136.55 50.4061 137.143 50.2963 137.626 50.0765C138.11 49.848 138.483 49.5052 138.747 49.0482C139.011 48.5824 139.151 47.9891 139.169 47.2684ZM134.199 53.6361H137.587L137.442 54.4403C137.934 54.5282 138.387 54.7391 138.8 55.0731C139.213 55.4159 139.419 55.9652 139.419 56.7211C139.419 57.2133 139.314 57.6571 139.103 58.0526C138.892 58.4569 138.58 58.8041 138.167 59.0941C137.754 59.3842 137.24 59.6039 136.624 59.7533C136.009 59.9115 135.297 59.9906 134.489 59.9906L134.396 57.5385C134.625 57.5385 134.827 57.5033 135.003 57.433C135.179 57.3627 135.315 57.2528 135.411 57.1034C135.517 56.954 135.57 56.7606 135.57 56.5233C135.57 56.2948 135.508 56.1146 135.385 55.9828C135.271 55.8597 135.082 55.7631 134.818 55.6927C134.554 55.6312 134.212 55.5873 133.79 55.5609L134.199 53.6361ZM155.186 38.6068L150.506 53.7679H145.535L152.589 34.5726H155.739L155.186 38.6068ZM159.062 53.7679L154.368 38.6068L153.762 34.5726H156.952L164.045 53.7679H159.062ZM158.877 46.6093V50.182H149.029V46.6093H158.877ZM157.44 29.4047L159.892 29.5497C159.892 30.1913 159.76 30.7845 159.497 31.3295C159.242 31.8744 158.886 32.3138 158.429 32.6478C157.972 32.9818 157.445 33.1488 156.847 33.1488C156.443 33.1488 156.082 33.0961 155.766 32.9906C155.458 32.8763 155.168 32.7445 154.896 32.5951C154.632 32.4457 154.36 32.3182 154.078 32.2128C153.806 32.0985 153.503 32.0414 153.169 32.0414C152.896 32.0414 152.659 32.1381 152.457 32.3314C152.263 32.5248 152.167 32.8236 152.167 33.2279L149.688 33.0961C149.688 32.472 149.816 31.8876 150.071 31.3427C150.334 30.7889 150.695 30.3451 151.152 30.0111C151.609 29.6683 152.136 29.4969 152.734 29.4969C153.076 29.4969 153.402 29.5541 153.709 29.6683C154.017 29.7738 154.316 29.9012 154.606 30.0507C154.896 30.1913 155.186 30.3187 155.476 30.433C155.775 30.5385 156.082 30.5912 156.399 30.5912C156.68 30.5912 156.922 30.4945 157.124 30.3011C157.335 30.1078 157.44 29.809 157.44 29.4047ZM182.488 43.788V44.5658C182.488 46.0336 182.281 47.3519 181.868 48.5209C181.464 49.681 180.888 50.6742 180.141 51.5004C179.394 52.3177 178.511 52.9462 177.491 53.3856C176.472 53.8163 175.347 54.0316 174.116 54.0316C172.877 54.0316 171.743 53.8163 170.715 53.3856C169.695 52.9462 168.808 52.3177 168.052 51.5004C167.305 50.6742 166.725 49.681 166.312 48.5209C165.907 47.3519 165.705 46.0336 165.705 44.5658V43.788C165.705 42.3202 165.907 41.0018 166.312 39.8329C166.725 38.6639 167.3 37.6708 168.039 36.8534C168.786 36.0272 169.669 35.3988 170.689 34.9681C171.717 34.5287 172.851 34.309 174.09 34.309C175.32 34.309 176.445 34.5287 177.465 34.9681C178.493 35.3988 179.381 36.0272 180.128 36.8534C180.875 37.6708 181.455 38.6639 181.868 39.8329C182.281 41.0018 182.488 42.3202 182.488 43.788ZM177.795 44.5658V43.7616C177.795 42.8124 177.711 41.9774 177.544 41.2567C177.386 40.5272 177.149 39.9164 176.832 39.4242C176.516 38.932 176.125 38.5629 175.659 38.3168C175.202 38.0619 174.679 37.9344 174.09 37.9344C173.475 37.9344 172.939 38.0619 172.482 38.3168C172.025 38.5629 171.642 38.932 171.335 39.4242C171.027 39.9164 170.794 40.5272 170.636 41.2567C170.486 41.9774 170.412 42.8124 170.412 43.7616V44.5658C170.412 45.5062 170.486 46.3412 170.636 47.0707C170.794 47.7914 171.027 48.4022 171.335 48.9032C171.651 49.4042 172.038 49.7821 172.495 50.037C172.961 50.2919 173.501 50.4193 174.116 50.4193C174.705 50.4193 175.228 50.2919 175.685 50.037C176.142 49.7821 176.525 49.4042 176.832 48.9032C177.149 48.4022 177.386 47.7914 177.544 47.0707C177.711 46.3412 177.795 45.5062 177.795 44.5658ZM203.659 48.6659C203.659 48.3671 203.615 48.099 203.527 47.8617C203.439 47.6156 203.276 47.3871 203.039 47.1761C202.802 46.9652 202.459 46.7543 202.011 46.5433C201.571 46.3236 200.991 46.0951 200.27 45.8578C199.427 45.5765 198.614 45.2601 197.832 44.9086C197.049 44.5482 196.351 44.1307 195.735 43.6561C195.12 43.1727 194.632 42.6102 194.272 41.9686C193.912 41.3182 193.731 40.5624 193.731 39.701C193.731 38.8749 193.916 38.1322 194.285 37.473C194.654 36.8051 195.168 36.2382 195.828 35.7723C196.496 35.2977 197.278 34.9374 198.174 34.6913C199.071 34.4364 200.051 34.309 201.114 34.309C202.52 34.309 203.76 34.5551 204.832 35.0472C205.913 35.5306 206.757 36.2206 207.363 37.1171C207.979 38.0048 208.286 39.0551 208.286 40.2679H203.685C203.685 39.7845 203.584 39.3583 203.382 38.9891C203.188 38.62 202.894 38.33 202.499 38.119C202.103 37.9081 201.606 37.8026 201.009 37.8026C200.429 37.8026 199.941 37.8905 199.545 38.0663C199.15 38.2421 198.851 38.4794 198.649 38.7782C198.447 39.0682 198.346 39.389 198.346 39.7406C198.346 40.0306 198.425 40.2943 198.583 40.5316C198.75 40.7601 198.983 40.9755 199.282 41.1776C199.589 41.3798 199.958 41.5731 200.389 41.7577C200.829 41.9423 201.321 42.1224 201.866 42.2982C202.885 42.6234 203.791 42.9882 204.582 43.3925C205.381 43.788 206.054 44.2406 206.599 44.7504C207.152 45.2513 207.57 45.8226 207.851 46.4642C208.141 47.1058 208.286 47.8309 208.286 48.6395C208.286 49.5009 208.119 50.2655 207.785 50.9335C207.451 51.6014 206.972 52.1683 206.348 52.6342C205.724 53.0912 204.977 53.4384 204.107 53.6757C203.237 53.913 202.266 54.0316 201.193 54.0316C200.209 54.0316 199.238 53.9086 198.28 53.6625C197.331 53.4076 196.469 53.0209 195.696 52.5023C194.922 51.975 194.303 51.3026 193.837 50.4852C193.38 49.6591 193.151 48.6791 193.151 47.5453H197.792C197.792 48.1078 197.867 48.5824 198.016 48.9691C198.166 49.3558 198.385 49.6678 198.675 49.9052C198.965 50.1337 199.321 50.3007 199.743 50.4061C200.165 50.5028 200.648 50.5511 201.193 50.5511C201.782 50.5511 202.257 50.4677 202.617 50.3007C202.978 50.1249 203.241 49.8964 203.408 49.6151C203.575 49.3251 203.659 49.0087 203.659 48.6659ZM227.995 43.788V44.5658C227.995 46.0336 227.788 47.3519 227.375 48.5209C226.971 49.681 226.395 50.6742 225.648 51.5004C224.901 52.3177 224.017 52.9462 222.998 53.3856C221.978 53.8163 220.853 54.0316 219.623 54.0316C218.384 54.0316 217.25 53.8163 216.222 53.3856C215.202 52.9462 214.314 52.3177 213.559 51.5004C212.811 50.6742 212.231 49.681 211.818 48.5209C211.414 47.3519 211.212 46.0336 211.212 44.5658V43.788C211.212 42.3202 211.414 41.0018 211.818 39.8329C212.231 38.6639 212.807 37.6708 213.545 36.8534C214.292 36.0272 215.176 35.3988 216.195 34.9681C217.224 34.5287 218.357 34.309 219.597 34.309C220.827 34.309 221.952 34.5287 222.972 34.9681C224 35.3988 224.888 36.0272 225.635 36.8534C226.382 37.6708 226.962 38.6639 227.375 39.8329C227.788 41.0018 227.995 42.3202 227.995 43.788ZM223.301 44.5658V43.7616C223.301 42.8124 223.218 41.9774 223.051 41.2567C222.892 40.5272 222.655 39.9164 222.339 39.4242C222.022 38.932 221.631 38.5629 221.165 38.3168C220.708 38.0619 220.185 37.9344 219.597 37.9344C218.981 37.9344 218.445 38.0619 217.988 38.3168C217.531 38.5629 217.149 38.932 216.841 39.4242C216.534 39.9164 216.301 40.5272 216.142 41.2567C215.993 41.9774 215.918 42.8124 215.918 43.7616V44.5658C215.918 45.5062 215.993 46.3412 216.142 47.0707C216.301 47.7914 216.534 48.4022 216.841 48.9032C217.158 49.4042 217.544 49.7821 218.001 50.037C218.467 50.2919 219.008 50.4193 219.623 50.4193C220.212 50.4193 220.735 50.2919 221.192 50.037C221.649 49.7821 222.031 49.4042 222.339 48.9032C222.655 48.4022 222.892 47.7914 223.051 47.0707C223.218 46.3412 223.301 45.5062 223.301 44.5658ZM242.39 47.2684H247.004C246.943 48.6044 246.582 49.7821 245.923 50.8016C245.264 51.8212 244.35 52.6166 243.181 53.1879C242.021 53.7504 240.65 54.0316 239.068 54.0316C237.785 54.0316 236.638 53.8163 235.627 53.3856C234.625 52.955 233.772 52.3353 233.069 51.5267C232.375 50.7181 231.843 49.7382 231.474 48.5868C231.114 47.4354 230.933 46.139 230.933 44.6976V43.6561C230.933 42.2147 231.122 40.9183 231.5 39.767C231.887 38.6068 232.432 37.6224 233.135 36.8138C233.847 35.9965 234.7 35.3724 235.693 34.9418C236.686 34.5111 237.789 34.2958 239.002 34.2958C240.672 34.2958 242.082 34.5946 243.234 35.1923C244.385 35.7899 245.277 36.6117 245.91 37.6576C246.543 38.6947 246.916 39.8768 247.031 41.204H242.416C242.399 40.4833 242.276 39.8812 242.047 39.3978C241.819 38.9056 241.458 38.5365 240.966 38.2904C240.474 38.0443 239.819 37.9213 239.002 37.9213C238.43 37.9213 237.934 38.0267 237.512 38.2377C237.09 38.4486 236.739 38.7826 236.457 39.2396C236.176 39.6967 235.965 40.2899 235.825 41.0194C235.693 41.7401 235.627 42.6102 235.627 43.6298V44.6976C235.627 45.7172 235.688 46.5873 235.811 47.308C235.934 48.0287 236.132 48.6176 236.405 49.0746C236.677 49.5316 237.029 49.87 237.459 50.0897C237.899 50.3007 238.435 50.4061 239.068 50.4061C239.771 50.4061 240.364 50.2963 240.847 50.0765C241.331 49.848 241.704 49.5052 241.968 49.0482C242.232 48.5824 242.372 47.9891 242.39 47.2684ZM255.19 34.5726V53.7679H250.576V34.5726H255.19ZM275.769 43.788V44.5658C275.769 46.0336 275.562 47.3519 275.149 48.5209C274.745 49.681 274.169 50.6742 273.422 51.5004C272.675 52.3177 271.792 52.9462 270.772 53.3856C269.753 53.8163 268.628 54.0316 267.397 54.0316C266.158 54.0316 265.024 53.8163 263.996 53.3856C262.976 52.9462 262.089 52.3177 261.333 51.5004C260.586 50.6742 260.006 49.681 259.592 48.5209C259.188 47.3519 258.986 46.0336 258.986 44.5658V43.788C258.986 42.3202 259.188 41.0018 259.592 39.8329C260.006 38.6639 260.581 37.6708 261.319 36.8534C262.067 36.0272 262.95 35.3988 263.969 34.9681C264.998 34.5287 266.132 34.309 267.371 34.309C268.601 34.309 269.726 34.5287 270.746 34.9681C271.774 35.3988 272.662 36.0272 273.409 36.8534C274.156 37.6708 274.736 38.6639 275.149 39.8329C275.562 41.0018 275.769 42.3202 275.769 43.788ZM271.075 44.5658V43.7616C271.075 42.8124 270.992 41.9774 270.825 41.2567C270.667 40.5272 270.429 39.9164 270.113 39.4242C269.797 38.932 269.405 38.5629 268.94 38.3168C268.483 38.0619 267.96 37.9344 267.371 37.9344C266.756 37.9344 266.219 38.0619 265.762 38.3168C265.305 38.5629 264.923 38.932 264.615 39.4242C264.308 39.9164 264.075 40.5272 263.917 41.2567C263.767 41.9774 263.693 42.8124 263.693 43.7616V44.5658C263.693 45.5062 263.767 46.3412 263.917 47.0707C264.075 47.7914 264.308 48.4022 264.615 48.9032C264.932 49.4042 265.319 49.7821 265.776 50.037C266.241 50.2919 266.782 50.4193 267.397 50.4193C267.986 50.4193 268.509 50.2919 268.966 50.037C269.423 49.7821 269.805 49.4042 270.113 48.9032C270.429 48.4022 270.667 47.7914 270.825 47.0707C270.992 46.3412 271.075 45.5062 271.075 44.5658ZM292.458 50.2084V53.7679H282.228V50.2084H292.458ZM283.876 34.5726V53.7679H279.248V34.5726H283.876ZM291.14 42.1927V45.6337H282.228V42.1927H291.14ZM292.498 34.5726V38.1454H282.228V34.5726H292.498ZM297.73 34.5726H301.501L305.786 47.9276L310.07 34.5726H313.841L307.315 53.7679H304.256L297.73 34.5726ZM295.437 34.5726H299.339L300.064 49.2855V53.7679H295.437V34.5726ZM312.232 34.5726H316.148V53.7679H311.507V49.2855L312.232 34.5726ZM336.436 43.788V44.5658C336.436 46.0336 336.23 47.3519 335.817 48.5209C335.413 49.681 334.837 50.6742 334.09 51.5004C333.343 52.3177 332.459 52.9462 331.44 53.3856C330.42 53.8163 329.295 54.0316 328.065 54.0316C326.826 54.0316 325.692 53.8163 324.664 53.3856C323.644 52.9462 322.756 52.3177 322 51.5004C321.253 50.6742 320.673 49.681 320.26 48.5209C319.856 47.3519 319.654 46.0336 319.654 44.5658V43.788C319.654 42.3202 319.856 41.0018 320.26 39.8329C320.673 38.6639 321.249 37.6708 321.987 36.8534C322.734 36.0272 323.618 35.3988 324.637 34.9681C325.665 34.5287 326.799 34.309 328.039 34.309C329.269 34.309 330.394 34.5287 331.414 34.9681C332.442 35.3988 333.33 36.0272 334.077 36.8534C334.824 37.6708 335.404 38.6639 335.817 39.8329C336.23 41.0018 336.436 42.3202 336.436 43.788ZM331.743 44.5658V43.7616C331.743 42.8124 331.66 41.9774 331.493 41.2567C331.334 40.5272 331.097 39.9164 330.781 39.4242C330.464 38.932 330.073 38.5629 329.607 38.3168C329.15 38.0619 328.627 37.9344 328.039 37.9344C327.423 37.9344 326.887 38.0619 326.43 38.3168C325.973 38.5629 325.591 38.932 325.283 39.4242C324.976 39.9164 324.743 40.5272 324.584 41.2567C324.435 41.9774 324.36 42.8124 324.36 43.7616V44.5658C324.36 45.5062 324.435 46.3412 324.584 47.0707C324.743 47.7914 324.976 48.4022 325.283 48.9032C325.6 49.4042 325.986 49.7821 326.443 50.037C326.909 50.2919 327.45 50.4193 328.065 50.4193C328.654 50.4193 329.177 50.2919 329.634 50.037C330.091 49.7821 330.473 49.4042 330.781 48.9032C331.097 48.4022 331.334 47.7914 331.493 47.0707C331.66 46.3412 331.743 45.5062 331.743 44.5658ZM350.832 47.2684H355.446C355.385 48.6044 355.024 49.7821 354.365 50.8016C353.706 51.8212 352.792 52.6166 351.623 53.1879C350.463 53.7504 349.092 54.0316 347.51 54.0316C346.226 54.0316 345.079 53.8163 344.069 53.3856C343.067 52.955 342.214 52.3353 341.511 51.5267C340.817 50.7181 340.285 49.7382 339.916 48.5868C339.556 47.4354 339.375 46.139 339.375 44.6976V43.6561C339.375 42.2147 339.564 40.9183 339.942 39.767C340.329 38.6068 340.874 37.6224 341.577 36.8138C342.289 35.9965 343.141 35.3724 344.135 34.9418C345.128 34.5111 346.231 34.2958 347.444 34.2958C349.114 34.2958 350.524 34.5946 351.676 35.1923C352.827 35.7899 353.719 36.6117 354.352 37.6576C354.985 38.6947 355.358 39.8768 355.473 41.204H350.858C350.841 40.4833 350.718 39.8812 350.489 39.3978C350.261 38.9056 349.9 38.5365 349.408 38.2904C348.916 38.0443 348.261 37.9213 347.444 37.9213C346.872 37.9213 346.376 38.0267 345.954 38.2377C345.532 38.4486 345.181 38.7826 344.899 39.2396C344.618 39.6967 344.407 40.2899 344.266 41.0194C344.135 41.7401 344.069 42.6102 344.069 43.6298V44.6976C344.069 45.7172 344.13 46.5873 344.253 47.308C344.376 48.0287 344.574 48.6176 344.847 49.0746C345.119 49.5316 345.471 49.87 345.901 50.0897C346.341 50.3007 346.877 50.4061 347.51 50.4061C348.213 50.4061 348.806 50.2963 349.289 50.0765C349.773 49.848 350.146 49.5052 350.41 49.0482C350.674 48.5824 350.814 47.9891 350.832 47.2684ZM363.632 34.5726V53.7679H359.018V34.5726H363.632ZM384.211 43.788V44.5658C384.211 46.0336 384.004 47.3519 383.591 48.5209C383.187 49.681 382.611 50.6742 381.864 51.5004C381.117 52.3177 380.234 52.9462 379.214 53.3856C378.195 53.8163 377.07 54.0316 375.839 54.0316C374.6 54.0316 373.466 53.8163 372.438 53.3856C371.418 52.9462 370.53 52.3177 369.775 51.5004C369.028 50.6742 368.447 49.681 368.034 48.5209C367.63 47.3519 367.428 46.0336 367.428 44.5658V43.788C367.428 42.3202 367.63 41.0018 368.034 39.8329C368.447 38.6639 369.023 37.6708 369.761 36.8534C370.508 36.0272 371.392 35.3988 372.411 34.9681C373.44 34.5287 374.573 34.309 375.813 34.309C377.043 34.309 378.168 34.5287 379.188 34.9681C380.216 35.3988 381.104 36.0272 381.851 36.8534C382.598 37.6708 383.178 38.6639 383.591 39.8329C384.004 41.0018 384.211 42.3202 384.211 43.788ZM379.517 44.5658V43.7616C379.517 42.8124 379.434 41.9774 379.267 41.2567C379.109 40.5272 378.871 39.9164 378.555 39.4242C378.238 38.932 377.847 38.5629 377.382 38.3168C376.924 38.0619 376.402 37.9344 375.813 37.9344C375.197 37.9344 374.661 38.0619 374.204 38.3168C373.747 38.5629 373.365 38.932 373.057 39.4242C372.75 39.9164 372.517 40.5272 372.359 41.2567C372.209 41.9774 372.134 42.8124 372.134 43.7616V44.5658C372.134 45.5062 372.209 46.3412 372.359 47.0707C372.517 47.7914 372.75 48.4022 373.057 48.9032C373.374 49.4042 373.76 49.7821 374.217 50.037C374.683 50.2919 375.224 50.4193 375.839 50.4193C376.428 50.4193 376.951 50.2919 377.408 50.037C377.865 49.7821 378.247 49.4042 378.555 48.9032C378.871 48.4022 379.109 47.7914 379.267 47.0707C379.434 46.3412 379.517 45.5062 379.517 44.5658ZM403.721 34.5726V53.7679H399.107L392.318 41.8236V53.7679H387.69V34.5726H392.318L399.107 46.517V34.5726H403.721ZM416.1 38.6068L411.419 53.7679H406.449L413.502 34.5726H416.653L416.1 38.6068ZM419.976 53.7679L415.282 38.6068L414.676 34.5726H417.866L424.959 53.7679H419.976ZM419.791 46.6093V50.182H409.943V46.6093H419.791ZM440.132 50.2084V53.7679H430.429V50.2084H440.132ZM432.077 34.5726V53.7679H427.45V34.5726H432.077Z" fill="black"/>
</svg>
