<svg width="234" height="37" viewBox="0 0 234 37" fill="none" xmlns="http://www.w3.org/2000/svg">
<path d="M159.151 18.241C159.151 23.9646 159.151 29.6788 159.151 35.4025C159.151 36.358 159.276 36.2823 158.234 36.2823C156.797 36.2823 155.36 36.2823 153.913 36.2823C153.758 36.2823 153.604 36.2823 153.45 36.2823C153.025 36.2634 153.015 36.2634 152.967 35.8755C152.909 35.4309 152.861 34.9768 152.803 34.5227C152.765 34.2578 152.687 34.2294 152.466 34.3997C152.263 34.5605 152.08 34.7308 151.877 34.8822C150.806 35.7241 149.639 36.4053 148.279 36.6986C145.954 37.1905 143.726 36.9067 141.613 35.8566C139.597 34.8538 138.304 33.1982 137.513 31.1358C136.915 29.5842 136.703 27.9665 136.674 26.3203C136.645 24.3336 136.655 22.3374 136.674 20.3507C136.693 18.7802 136.877 17.2287 137.417 15.7434C138.642 12.347 141.054 10.3509 144.719 9.83998C146.793 9.54671 148.771 9.77376 150.585 10.8617C150.932 11.0699 151.26 11.3253 151.597 11.5429C151.713 11.6186 151.858 11.6659 151.983 11.7226C152.003 11.5807 152.032 11.4388 152.041 11.2969C152.041 11.1455 152.041 10.9942 152.041 10.8428V1.24031C152.041 1.11733 152.041 0.984877 152.041 0.861889C152.041 0.171267 152.003 0.180727 152.697 0.190188C153.469 0.190188 154.241 0.190188 155.012 0.190188C156.218 0.190188 157.424 0.190188 158.639 0.190188C159.131 0.190188 159.131 0.199648 159.151 0.701059C159.151 0.880811 159.151 1.0511 159.151 1.23085C159.151 6.89774 159.151 12.5741 159.151 18.241ZM152.051 23.4159C152.051 21.7319 152.051 20.0385 152.051 18.3545C152.051 18.0045 151.983 17.7207 151.684 17.5031C151.125 17.1057 150.594 16.6516 150.015 16.3016C149.099 15.7434 148.076 15.5258 146.986 15.6393C145.819 15.7623 144.941 16.311 144.507 17.399C144.276 17.9761 144.092 18.6005 144.034 19.2154C143.793 21.9306 143.813 24.6458 144.015 27.361C144.015 27.4651 144.034 27.5597 144.044 27.6637C144.15 28.2881 144.295 28.8936 144.594 29.4612C145.009 30.2465 145.636 30.7479 146.523 30.9371C147.652 31.1925 148.732 31.0412 149.726 30.4924C150.392 30.1235 150.99 29.641 151.626 29.2153C151.954 28.9977 152.06 28.7139 152.06 28.326C152.032 26.6893 152.051 25.0526 152.051 23.4159Z" fill="white"/>
<path d="M0.135254 18.6006C0.135254 16.1787 0.135254 13.7568 0.135254 11.3349C0.135254 10.351 0.212427 9.36708 0.453593 8.41156C1.14815 5.65853 2.84596 3.72857 5.49879 2.60276C7.20625 1.88376 9.00053 1.59994 10.8334 1.58102C14.0747 1.54318 17.3063 1.57156 20.5476 1.57156C20.6537 1.57156 20.7694 1.54318 20.8563 1.59048C20.9527 1.63778 21.0588 1.72293 21.1071 1.81753C21.1457 1.90268 21.1264 2.01621 21.1264 2.12027C21.1264 3.75695 21.1264 5.39363 21.1264 7.03978C21.1264 7.56957 21.1167 7.57903 20.5572 7.57903C17.5475 7.57903 14.5474 7.57903 11.5376 7.58849C10.9492 7.58849 10.3511 7.64525 9.78191 7.76824C8.6436 8.01422 7.95869 8.74268 7.66929 9.84011C7.57282 10.1996 7.5053 10.5875 7.49565 10.9565C7.46671 12.3377 7.46671 13.7284 7.47636 15.1191C7.47636 15.5354 7.49565 15.5448 7.91046 15.5543C8.60501 15.5638 9.29957 15.5543 9.99413 15.5543C12.8688 15.5543 15.7532 15.5543 18.6279 15.5543C18.8112 15.5543 18.9848 15.5543 19.1681 15.5543C19.6215 15.5732 19.6408 15.5732 19.6408 16.0368C19.6408 17.6735 19.6408 19.3102 19.6408 20.9563C19.6408 21.4766 19.6311 21.4861 19.062 21.4861C16.6986 21.4861 14.3351 21.4861 11.9717 21.4861C10.6308 21.4861 9.29957 21.4861 7.95869 21.4861C7.486 21.4861 7.47636 21.505 7.47636 21.9497C7.47636 23.5863 7.46671 25.223 7.49565 26.8597C7.5053 27.3517 7.61141 27.8625 7.75611 28.345C8.00692 29.1965 8.60501 29.7641 9.47321 30.0479C10.1195 30.2561 10.7755 30.3223 11.4508 30.3128C14.4316 30.3128 17.4124 30.3128 20.3932 30.3128C21.5026 30.3128 21.3482 30.1709 21.3579 31.2873C21.3579 32.3941 21.3579 33.501 21.3579 34.6174C21.3579 34.8161 21.3579 35.0242 21.3386 35.2229C21.2421 35.8189 20.9045 36.1595 20.2775 36.2635C20.0556 36.3014 19.8144 36.3014 19.5829 36.3014C16.8818 36.3014 14.1808 36.3108 11.4894 36.3014C9.68544 36.3014 7.90081 36.1216 6.1837 35.5067C2.5855 34.2295 0.60794 31.713 0.222074 27.9855C0.164194 27.4084 0.144901 26.8313 0.144901 26.2542C0.144901 23.7093 0.144901 21.1644 0.144901 18.6195L0.135254 18.6006Z" fill="white"/>
<path d="M210.375 23.293C210.423 22.1104 210.433 20.9278 210.539 19.7453C210.674 18.0991 211.147 16.5287 211.957 15.0717C213.337 12.5931 215.439 10.9942 218.189 10.2374C220.745 9.52783 223.321 9.51837 225.877 10.2374C229.369 11.2118 231.694 13.435 232.9 16.7841C233.402 18.1748 233.633 19.6128 233.662 21.0887C233.691 22.574 233.691 24.0593 233.662 25.5541C233.633 27.1529 233.373 28.7139 232.794 30.2181C231.559 33.4347 229.244 35.535 225.877 36.4621C223.35 37.1527 220.784 37.1622 218.266 36.4716C214.523 35.4498 212.14 33.0185 211.031 29.3856C210.626 28.0517 210.471 26.6704 210.443 25.2797C210.433 24.6269 210.443 23.9647 210.443 23.3119C210.423 23.3119 210.414 23.3119 210.394 23.3119L210.375 23.293ZM226.514 23.3403C226.514 23.3403 226.456 23.3403 226.417 23.3403C226.417 22.4604 226.446 21.5806 226.417 20.7008C226.379 19.6885 226.234 18.6951 225.819 17.7585C225.356 16.6895 224.556 15.9799 223.388 15.7718C222.81 15.6677 222.211 15.6204 221.633 15.6394C219.771 15.6961 218.623 16.576 218.073 18.3167C217.764 19.2912 217.668 20.294 217.649 21.2968C217.629 22.6024 217.629 23.9174 217.649 25.2229C217.658 25.9041 217.697 26.5853 217.813 27.2475C217.928 27.8814 218.112 28.5247 218.372 29.1207C218.787 30.0857 219.588 30.6533 220.62 30.8993C221.353 31.079 222.096 31.098 222.838 31.0128C224.498 30.8236 225.568 29.9438 226.022 28.3639C226.128 28.0044 226.234 27.6354 226.263 27.257C226.36 25.9514 226.427 24.6458 226.504 23.3403H226.514Z" fill="white"/>
<path d="M164.563 23.2741C164.563 22.2902 164.534 21.3063 164.563 20.3224C164.63 18.1086 165.248 16.0557 166.531 14.2109C167.823 12.3566 169.55 11.0605 171.72 10.3509C174.229 9.52786 176.785 9.45218 179.303 10.2469C183.229 11.4767 185.583 14.1825 186.605 18.0613C186.827 18.9128 186.933 19.7926 186.924 20.6819C186.924 21.7131 186.924 22.7443 186.924 23.785C186.924 25.1567 186.518 25.5541 185.149 25.5541C180.962 25.5541 176.766 25.5541 172.579 25.5541C172.376 25.5541 172.164 25.5541 171.962 25.5541C171.788 25.5541 171.672 25.6392 171.672 25.8284C171.653 27.0016 171.769 28.1463 172.396 29.187C172.878 29.9816 173.602 30.4831 174.489 30.7574C175.714 31.1453 176.978 31.0885 178.232 30.9845C179.978 30.8426 181.676 30.4358 183.364 29.9722C184.184 29.7451 184.126 29.6694 184.358 30.5587C184.724 31.9494 185.11 33.3307 185.486 34.7214C185.602 35.166 185.602 35.185 185.168 35.3174C182.795 36.0837 180.402 36.7365 177.894 36.8973C175.666 37.0392 173.476 36.85 171.373 36.0837C167.843 34.7876 165.72 32.2806 164.871 28.7045C164.649 27.7679 164.553 26.8218 164.563 25.8568C164.572 24.9959 164.563 24.1445 164.563 23.2836V23.2741ZM175.772 20.767C176.438 20.767 177.103 20.767 177.779 20.767C178.348 20.767 178.907 20.767 179.476 20.767C179.747 20.767 179.833 20.6535 179.833 20.4075C179.843 19.5182 179.756 18.6479 179.419 17.8153C178.965 16.7084 178.155 16.0084 176.959 15.734C176.274 15.5732 175.579 15.5543 174.894 15.6678C173.447 15.9043 172.483 16.7179 172 18.0708C171.74 18.8182 171.643 19.5845 171.672 20.3792C171.692 20.7292 171.711 20.7576 172.077 20.767C173.312 20.767 174.537 20.767 175.772 20.767Z" fill="white"/>
<path d="M48.3684 23.3496C48.3684 27.3609 48.3684 31.3627 48.3684 35.374C48.3684 35.5538 48.3684 35.7241 48.3684 35.9038C48.3491 36.2444 48.3299 36.2917 47.9536 36.2917C46.1786 36.2917 44.4037 36.2917 42.6383 36.2917C42.3393 36.2917 42.2428 36.1498 42.2235 35.8754C42.1946 35.5254 42.156 35.1754 42.0981 34.8253C42.0692 34.6172 42.0016 34.4091 41.9534 34.2104C41.7701 34.3334 41.5675 34.4469 41.3939 34.5888C39.8119 35.8281 38.0562 36.6512 36.0304 36.8688C34.2843 37.058 32.5865 36.8404 30.9852 36.1309C28.7568 35.1375 27.5317 33.3495 26.9529 31.0789C26.7213 30.1707 26.6152 29.2436 26.6152 28.307C26.6152 22.8388 26.6152 17.3705 26.6152 11.9023C26.6152 11.751 26.6152 11.5996 26.6249 11.4482C26.6924 10.9184 26.9722 10.5589 27.5124 10.4359C27.7342 10.3886 27.9658 10.3603 28.1973 10.3603C29.8179 10.3603 31.4386 10.3603 33.0592 10.3603C33.1653 10.3603 33.2618 10.3603 33.3679 10.3603C33.638 10.3508 33.7248 10.4927 33.7152 10.7387C33.7152 10.9373 33.7152 11.1455 33.7152 11.3442C33.7152 16.6326 33.7152 21.9305 33.7152 27.219C33.7152 27.8245 33.7634 28.43 33.8792 29.0165C34.1396 30.3599 34.9499 30.9843 36.3584 31.0411C37.5835 31.0884 38.6832 30.7384 39.6961 30.0761C39.8215 29.991 39.9469 29.9058 40.0723 29.8112C40.8569 29.231 41.2492 28.4647 41.2492 27.5123C41.2492 22.0725 41.2492 16.6232 41.2492 11.1833C41.2492 10.2467 41.172 10.3508 42.1271 10.3508C43.9213 10.3508 45.7253 10.3508 47.5195 10.3508C47.7028 10.3508 47.8765 10.3508 48.0597 10.3508C48.243 10.3508 48.3395 10.4549 48.3395 10.6346C48.3395 10.8333 48.3395 11.0414 48.3395 11.2401C48.3395 15.2703 48.3395 19.3005 48.3395 23.3402L48.3684 23.3496Z" fill="white"/>
<path d="M97.1904 19.5464C97.1904 14.1066 97.1904 8.65726 97.1904 3.21742C97.1904 3.06605 97.1904 2.91468 97.1904 2.76331C97.2001 2.22406 97.2001 2.2146 97.7499 2.2146C99.8336 2.2146 101.917 2.2146 103.991 2.2146C104.493 2.2146 104.493 2.23352 104.512 2.72547C104.512 2.90522 104.512 3.07551 104.512 3.25526C104.512 12.1766 104.512 21.0979 104.512 30.0193C104.512 31.0694 104.368 30.9275 105.458 30.9275C109.799 30.9275 114.14 30.9275 118.49 30.9275C118.693 30.9275 118.905 30.9275 119.108 30.9275C119.474 30.9464 119.503 30.9653 119.503 31.3248C119.503 32.7628 119.522 34.2008 119.503 35.6294C119.493 36.443 119.04 36.8593 118.201 36.916C118.018 36.9255 117.844 36.916 117.661 36.916C111.13 36.916 104.609 36.916 98.0779 36.916C97.1133 36.916 97.1904 37.039 97.1904 36.0078C97.1904 30.5112 97.1904 25.0241 97.1904 19.5275V19.5464Z" fill="white"/>
<path d="M192.075 24.0023C192.075 19.9437 192.075 15.8851 192.075 11.8265C192.075 10.994 192.017 11.0318 192.847 11.0318C194.284 11.0318 195.722 11.0318 197.169 11.0318C197.786 11.0318 197.931 10.8615 198.046 11.7319C198.133 12.4036 198.278 13.0753 198.403 13.7376C198.413 13.8038 198.471 13.8889 198.529 13.9078C198.567 13.9268 198.664 13.8511 198.702 13.8038C199.252 13.1037 199.889 12.4793 200.612 11.94C202.542 10.5115 204.693 10.1236 207.027 10.625C207.49 10.7291 207.539 10.7669 207.461 11.2305C207.201 12.8956 206.921 14.5606 206.642 16.2257C206.603 16.4433 206.487 16.5 206.265 16.4717C205.812 16.4149 205.349 16.3676 204.886 16.3392C203.989 16.2824 203.159 16.519 202.368 16.9258C201.239 17.5123 200.304 18.3259 199.435 19.2341C199.262 19.4139 199.175 19.6031 199.185 19.8396C199.185 20.0194 199.185 20.1897 199.185 20.3694C199.185 25.5822 199.185 30.8044 199.185 36.0172C199.185 37.0484 199.243 36.8971 198.278 36.9065C196.503 36.9065 194.728 36.9065 192.953 36.9065C192.828 36.9065 192.692 36.9065 192.567 36.9065C192.239 36.8939 192.072 36.7173 192.065 36.3767C192.065 36.2254 192.065 36.074 192.065 35.9226C192.065 31.9397 192.065 27.9568 192.065 23.9739L192.075 24.0023Z" fill="white"/>
<path d="M124.163 23.9457C124.163 19.9155 124.163 15.8853 124.163 11.8456C124.163 10.9942 124.076 11.032 125.003 11.032C126.826 11.032 128.649 11.032 130.472 11.032C130.655 11.032 130.839 11.0131 131.012 11.0509C131.109 11.0699 131.225 11.1834 131.254 11.2685C131.292 11.4388 131.273 11.6186 131.273 11.7983C131.273 19.6128 131.273 27.4177 131.273 35.2322C131.273 35.3552 131.273 35.4876 131.273 35.6106C131.234 36.4715 130.81 36.9067 129.932 36.9256C128.678 36.9446 127.414 36.9256 126.151 36.9256C125.61 36.9256 125.07 36.9256 124.53 36.9256C124.26 36.9256 124.163 36.8026 124.173 36.5567C124.173 36.358 124.173 36.1499 124.173 35.9512C124.173 31.9399 124.173 27.9381 124.173 23.9268L124.163 23.9457Z" fill="white"/>
<path d="M63.6883 5.44068H63.0806C63.2253 5.27039 63.3507 5.08118 63.5243 4.93927C65.1257 3.60533 66.9778 2.7728 69.0133 2.30923C69.5342 2.18624 70.0744 2.1011 70.605 2.02541C70.8558 1.98757 70.9426 2.07272 70.8847 2.32815C70.3927 4.61761 71.1355 6.65164 72.2159 8.61944C72.2545 8.68566 72.2931 8.75189 72.3317 8.81811C72.9394 9.76417 73.634 10.0196 74.6951 9.57496C75.3222 9.31006 75.9396 8.95056 76.4605 8.52483C78.0232 7.25712 79.3255 5.78127 80.0297 3.87023C80.1551 3.52965 80.2034 3.52019 80.5314 3.69994C81.9301 4.48517 83.1263 5.51637 84.1006 6.77463C84.3707 7.12467 84.3707 7.14359 84.0042 7.42741C82.4318 8.61944 80.9655 9.90608 79.6246 11.3441C76.8946 14.2674 74.3479 17.3326 71.9458 20.5114C71.4153 21.2209 70.8847 21.9399 70.3541 22.6495C70.3156 22.7063 70.2384 22.7441 70.1805 22.7914C70.1419 22.7063 70.0744 22.6306 70.0744 22.5454C70.0358 22.0724 70.0262 21.5899 69.9972 21.1074C69.6403 15.8568 68.1161 10.9657 65.3475 6.46243C65.2511 6.31106 65.1546 6.15969 65.0388 6.02724C64.6916 5.61097 64.2382 5.4123 63.6883 5.45015V5.44068Z" fill="#D4D626"/>
<path d="M66.4752 23.7187C66.5234 25.5919 66.2629 27.6922 65.7999 29.764C65.5973 30.6439 65.3369 31.5142 65.0861 32.3751C64.9606 32.8103 64.8835 32.8293 64.5073 32.5833C62.9927 31.5805 61.7869 30.2938 60.8705 28.7328C59.8672 27.0299 59.2788 25.1851 59.0376 23.2457C58.9122 22.2523 58.8736 21.24 58.864 20.2372C58.835 18.6005 58.8254 16.9639 58.8736 15.3272C58.9508 12.6404 59.6068 10.0955 61.0441 7.77762C61.2177 7.50327 61.4203 7.23837 61.6133 6.97347C61.6422 6.94509 61.7001 6.91671 61.7387 6.92617C61.7676 6.92617 61.8062 6.9924 61.8062 7.03024C61.8062 7.59787 62.1149 8.03306 62.385 8.48717C64.3336 11.7416 65.5877 15.2326 66.1472 18.96C66.3691 20.4548 66.4752 21.959 66.4655 23.7282L66.4752 23.7187Z" fill="#D4D626"/>
<path d="M86.9935 19.887C87.0321 21.2399 86.9742 22.8198 86.6462 24.3808C85.8938 27.9001 84.196 30.8234 81.0319 32.8007C79.363 33.8414 77.5205 34.4468 75.5622 34.6928C73.4882 34.9577 71.4142 34.9672 69.3594 34.532C68.0571 34.2576 68.2693 34.4279 68.5877 33.2643C68.7034 32.848 68.9639 32.6493 69.3208 32.4601C74.0863 30.0288 78.244 26.8216 81.8711 22.9428C83.5014 21.1926 84.9774 19.3194 86.3086 17.3421C86.434 17.1529 86.5498 16.9542 86.6848 16.7745C86.733 16.6988 86.8295 16.6515 86.897 16.5947C86.9356 16.6799 86.9935 16.765 86.9935 16.8407C86.9935 17.7773 86.9935 18.7044 86.9935 19.8775V19.887Z" fill="#D4D626"/>
<path d="M127.636 0.000915527C129.507 0.000915527 130.993 0.975356 131.514 2.49851C132.218 4.57038 131.186 6.79362 128.832 7.40855C127.829 7.67345 126.845 7.5883 125.899 7.15312C124.337 6.43411 123.468 4.81635 123.767 3.17021C124.076 1.44838 125.407 0.199588 127.144 0.0292973C127.346 0.0103761 127.559 0.000915527 127.645 0.000915527L127.636 0.000915527Z" fill="white"/>
</svg>
