<svg width="149" height="61" viewBox="0 0 149 61" fill="none" xmlns="http://www.w3.org/2000/svg">
<g clip-path="url(#clip0_93_656)">
<path fill-rule="evenodd" clip-rule="evenodd" d="M15.1235 29.0376H13.1884L7.81868 38.0877H7.7703L2.40054 29.0376H0.378418V43.4209H2.20704V32.5221H2.31347L7.50907 41.2624H7.90576L13.0917 32.5221H13.2078V43.4209H15.1235V29.0376Z" fill="white"/>
<path fill-rule="evenodd" clip-rule="evenodd" d="M29.1816 29.0376H27.3723L20.7061 43.4209H22.6895L24.6245 39.104H33.845L33.1291 37.565H25.3115L28.1463 31.2832H30.2265L29.1816 29.0376Z" fill="white"/>
<path fill-rule="evenodd" clip-rule="evenodd" d="M33.8452 39.104H31.8037L33.7581 43.4209H35.848L33.8452 39.104Z" fill="white"/>
<path fill-rule="evenodd" clip-rule="evenodd" d="M30.2265 31.2832H28.2817L31.1166 37.565H33.129L30.2265 31.2832Z" fill="white"/>
<path fill-rule="evenodd" clip-rule="evenodd" d="M53.4953 29.0376H51.1829L46.713 34.6322L42.3591 29.0376H39.9403L45.4649 35.9776L39.3501 43.4209H41.6528L46.6065 37.2262L51.4248 43.4209H53.8726L47.8353 35.8905L53.4953 29.0376Z" fill="white"/>
<path fill-rule="evenodd" clip-rule="evenodd" d="M77.9642 29.0376H75.9808L72.4203 40.5365H72.2849L68.6083 29.0376H67.157L63.4804 40.5365H63.374L59.8135 29.0376H57.7236L62.3387 43.4209H64.3028L67.7762 32.6286H67.9117L71.3851 43.4209H73.3395L77.9642 29.0376Z" fill="white"/>
<path fill-rule="evenodd" clip-rule="evenodd" d="M95.8537 41.6981H85.7044V36.7036H91.5192V35H85.7044V30.7315H95.3409V29.057H83.7983V30.7315V35V36.7036V41.6981V43.4113H95.8537V41.6981Z" fill="white"/>
<path fill-rule="evenodd" clip-rule="evenodd" d="M112.747 41.7271H103.681V29.0473H101.775V41.7271V43.4306H112.747V41.7271Z" fill="white"/>
<path fill-rule="evenodd" clip-rule="evenodd" d="M129.059 41.7271H119.993V29.0473H118.078V41.7271V43.4306H129.059V41.7271Z" fill="white"/>
<path fill-rule="evenodd" clip-rule="evenodd" d="M7.78953 58.7722H1.7038V50.2738H0.416992V58.7722V59.9143H7.78953V58.7722Z" fill="white"/>
<path fill-rule="evenodd" clip-rule="evenodd" d="M20.9478 58.7915H14.1364V55.4232H18.0355V54.281H14.1364V51.3966H20.5995V50.2545H12.8496V51.3966V54.281V55.4232V58.7915V59.9337H20.9478V58.7915Z" fill="white"/>
<path fill-rule="evenodd" clip-rule="evenodd" d="M30.7877 50.2738H29.5783L25.0986 59.924H26.4241L27.7303 57.0299H33.9225L33.4387 55.9942H28.185L30.0911 51.7838H31.4843L30.7877 50.2738Z" fill="white"/>
<path fill-rule="evenodd" clip-rule="evenodd" d="M33.9226 57.0299H32.5391L33.8549 59.924H35.2578L33.9226 57.0299Z" fill="white"/>
<path fill-rule="evenodd" clip-rule="evenodd" d="M31.4844 51.7838H30.1782L32.0842 55.9942H33.4388L31.4844 51.7838Z" fill="white"/>
<path fill-rule="evenodd" clip-rule="evenodd" d="M49.6255 53.8454L49.5094 53.4195C49.461 53.2453 49.3933 53.0808 49.3159 52.9259L49.1418 52.5775C49.0547 52.4129 48.9579 52.258 48.8418 52.1129L48.4451 51.6095L48.1936 51.4063L47.9711 51.2224C47.8356 51.1062 47.6808 51.0094 47.526 50.932L47.2261 50.7674C47.0519 50.6707 46.8681 50.6029 46.6746 50.5448L46.2392 50.4287C46.0747 50.3803 45.9006 50.3512 45.7264 50.3416L44.875 50.2738C44.8073 50.2738 44.7395 50.2738 44.6621 50.2738H40.4824V59.924H44.6718C44.7395 59.924 44.7976 59.924 44.8653 59.924L45.7167 59.8659C45.8812 59.8562 46.0554 59.8272 46.2102 59.7788L46.6262 59.6723C46.8197 59.6239 47.0035 59.5465 47.1777 59.4594L47.4583 59.3142C47.6131 59.2367 47.7582 59.14 47.884 59.0432C48.0872 58.8786 48.271 58.6947 48.4258 58.4721L49.0644 57.5719C49.2966 57.2525 49.4514 56.8847 49.5191 56.4975L49.7126 55.4715C49.761 55.2296 49.7707 54.9779 49.7513 54.7262L49.7223 54.3488C49.7029 54.1842 49.6739 54.01 49.6352 53.8551L49.6255 53.8454ZM48.2323 56.2556L48.0291 56.7589C47.8937 57.1073 47.6808 57.4267 47.4099 57.6978L47.2551 57.8429C46.9842 58.1043 46.6746 58.3172 46.3166 58.4527L45.9876 58.5786C45.7361 58.6754 45.4748 58.7334 45.2039 58.7528L44.8073 58.7818C44.7395 58.7818 44.6815 58.7818 44.6138 58.7818H41.7596V51.4063H44.6138C44.6815 51.4063 44.7492 51.4063 44.8169 51.4063L45.3587 51.445C45.5329 51.4547 45.7071 51.4837 45.8812 51.5321H45.9102C46.1908 51.6192 46.452 51.7354 46.6939 51.8999L46.9261 52.0548C47.2454 52.2677 47.5163 52.5387 47.7195 52.8678L47.8937 53.1389C48.0872 53.4389 48.2129 53.768 48.271 54.1164L48.3774 54.7262C48.4161 54.9682 48.4355 55.2102 48.4064 55.4522V55.5006C48.3774 55.7522 48.3194 56.0039 48.2226 56.2459L48.2323 56.2556Z" fill="white"/>
<path fill-rule="evenodd" clip-rule="evenodd" d="M63.606 58.7915H56.7946V55.4232H60.6937V54.281H56.7946V51.3966H63.2674V50.2545H55.5078V51.3966V54.281V55.4232V58.7915V59.9337H63.606V58.7915Z" fill="white"/>
<path fill-rule="evenodd" clip-rule="evenodd" d="M75.6712 55.9942L75.5744 55.8297L76.1646 55.578C76.3872 55.4812 76.5903 55.3554 76.7742 55.2005L76.8999 55.0941C77.1031 54.9198 77.2773 54.7166 77.4127 54.4843L77.4514 54.4262C77.5966 54.1842 77.6933 53.9132 77.7417 53.6422L77.7707 53.4583C77.8094 53.255 77.8191 53.0421 77.7997 52.8388C77.7901 52.6936 77.761 52.5388 77.7127 52.4032L77.6933 52.3452C77.6546 52.2 77.5966 52.0548 77.5288 51.9193L77.4998 51.8709C77.4321 51.7354 77.3547 51.6095 77.2579 51.4934L77.2386 51.4644C77.1321 51.3288 77.016 51.2127 76.8903 51.1062L76.7935 51.0288C76.6484 50.9126 76.5033 50.8062 76.3388 50.7287L76.2033 50.661C76.0485 50.5836 75.8937 50.5255 75.7292 50.4868L75.4486 50.419C75.3132 50.3803 75.1777 50.3609 75.0326 50.3513L74.3844 50.3029H69.063V59.953H70.3498V56.0233H74.2779L76.4936 59.953H77.9545L75.6712 56.0233V55.9942ZM70.3498 54.8618V51.416H74.3844L74.752 51.4353C74.8294 51.4353 74.8972 51.445 74.9746 51.4644L75.0907 51.4934C75.2358 51.5224 75.3713 51.5708 75.5067 51.6483L75.6905 51.7547C75.884 51.8612 76.0582 52.0161 76.1936 52.2L76.242 52.2677C76.3678 52.442 76.4452 52.6355 76.4936 52.8388C76.5323 53.0324 76.5323 53.2357 76.4936 53.4389V53.5067C76.4355 53.7099 76.3581 53.8938 76.242 54.0584L76.2033 54.1165C76.0872 54.281 75.9518 54.4165 75.7873 54.523L75.7002 54.5811C75.5357 54.6875 75.3616 54.7553 75.1681 54.794L74.8488 54.8521C74.7617 54.8714 74.665 54.8811 74.5779 54.8811H70.3595L70.3498 54.8618Z" fill="white"/>
<path fill-rule="evenodd" clip-rule="evenodd" d="M86.6718 50.0609L86.3041 50.0996C85.8978 50.1383 85.4914 50.2351 85.1044 50.3803L84.8625 50.4674C84.5916 50.5739 84.3401 50.7287 84.1272 50.932C83.7402 51.3095 83.4596 51.7838 83.3242 52.3065C83.2274 52.6839 83.2371 53.0808 83.3532 53.4583C83.4983 53.9422 83.8079 54.3584 84.2143 54.6488C84.4852 54.8327 84.7851 54.9682 85.0947 55.0457L85.772 55.2005C85.9558 55.2393 86.1396 55.2683 86.3235 55.2877L87.62 55.3941L88.5585 55.4909C88.7229 55.5103 88.8777 55.5393 89.0422 55.578L89.3421 55.6651C89.6421 55.7426 89.9227 55.8878 90.1742 56.0717L90.271 56.1394C90.4161 56.2459 90.5129 56.3911 90.5612 56.5653L90.629 56.7976C90.7064 57.0493 90.7064 57.3203 90.629 57.5719C90.5419 57.872 90.3774 58.143 90.1452 58.3463C89.9517 58.5205 89.7195 58.6657 89.4776 58.7528C89.0906 58.8883 88.6939 58.9851 88.2876 59.0238H88.1811C87.8909 59.0625 87.6006 59.0625 87.3007 59.0238L86.7589 58.9657C86.4299 58.927 86.1106 58.8496 85.801 58.7431L85.3269 58.5689C85.1625 58.5108 84.998 58.4334 84.8432 58.3366L84.4562 58.1043C84.2433 57.9688 84.0304 57.8236 83.8369 57.6591L83.4209 57.3106L82.6372 58.2011L83.0532 58.5302C83.3725 58.7818 83.7015 59.0141 84.0595 59.2174L84.1465 59.2658C84.4852 59.4594 84.8335 59.6143 85.2011 59.7401L85.414 59.8078C85.83 59.9434 86.2557 60.0305 86.6815 60.0789L87.2426 60.1369C87.5522 60.166 87.8618 60.166 88.1714 60.1369L88.5875 60.0885C89.1003 60.0305 89.6034 59.9046 90.0775 59.711L90.1646 59.6723C90.5322 59.5175 90.8708 59.2948 91.1514 59.0045C91.4901 58.656 91.7319 58.2205 91.8384 57.7462C91.9545 57.2816 91.9351 56.7879 91.7997 56.3233C91.6449 55.791 91.3159 55.3264 90.8708 54.9973C90.5806 54.7843 90.2516 54.6198 89.9033 54.5327L89.3712 54.3972C89.1196 54.3294 88.8681 54.2907 88.6165 54.2617L87.6006 54.1649L86.7008 54.1068C86.5267 54.0971 86.3525 54.0778 86.188 54.039L85.801 53.9713C85.5495 53.9229 85.3172 53.8455 85.0947 53.7196C84.8432 53.5841 84.6497 53.3615 84.5529 53.0905C84.4755 52.8872 84.4658 52.6646 84.5239 52.4516C84.611 52.1613 84.7658 51.8999 84.998 51.6967C85.1431 51.5612 85.3173 51.4644 85.5108 51.3966L85.6365 51.3482C85.8978 51.2514 86.1687 51.1933 86.4396 51.174L86.6041 51.1546C86.8266 51.1353 87.0588 51.1353 87.2813 51.1546L87.7167 51.1933C88.0166 51.2224 88.3069 51.2805 88.5972 51.3579L88.752 51.4063C89.0325 51.4837 89.3035 51.5902 89.5647 51.716L89.6324 51.7451C89.8549 51.8515 90.0678 51.9774 90.2613 52.1322L90.5129 52.3161L91.2772 51.4257L90.9095 51.174C90.687 51.0191 90.4548 50.8933 90.2032 50.7771L89.9904 50.6804C89.7292 50.5545 89.4583 50.4577 89.1777 50.3803L88.8487 50.2835C88.5391 50.1964 88.2295 50.1383 87.9102 50.1093L87.32 50.0512C87.0878 50.0318 86.8653 50.0318 86.6331 50.0512L86.6718 50.0609Z" fill="white"/>
<path fill-rule="evenodd" clip-rule="evenodd" d="M106.061 50.2932H104.784V54.1164H98.8625V50.2932H97.5757V54.1164V55.2489V59.924H98.8625V55.2489H104.784V59.924H106.061V55.2489V54.1164V50.2932Z" fill="white"/>
<path d="M113.898 50.2738H112.611V59.924H113.898V50.2738Z" fill="white"/>
<path fill-rule="evenodd" clip-rule="evenodd" d="M129.03 52.6065L128.962 52.3742C128.914 52.2 128.846 52.0354 128.769 51.8806L128.662 51.6579L128.469 51.3966L128.343 51.2321L128.101 51.0288C127.927 50.8836 127.733 50.7578 127.53 50.6513L127.443 50.6029C127.298 50.5352 127.153 50.4771 126.998 50.4384L126.921 50.419C126.64 50.3512 126.35 50.3029 126.069 50.2835L125.634 50.2545H120.419V59.9046H121.706V55.9749H125.063C125.44 55.9749 125.818 55.9458 126.195 55.8878L126.63 55.82C126.979 55.7619 127.317 55.6458 127.617 55.4619L127.888 55.2973C128.111 55.1618 128.314 54.9876 128.488 54.794L128.585 54.6779L128.778 54.3294C128.827 54.2423 128.865 54.1552 128.894 54.0584L128.962 53.8551C129.001 53.7293 129.03 53.5938 129.04 53.468L129.059 53.2937C129.069 53.1582 129.078 53.0227 129.059 52.8872L129.03 52.5871V52.6065ZM121.706 54.8618V51.416H125.634L126.011 51.4353C126.079 51.4353 126.137 51.445 126.195 51.4547C126.427 51.5031 126.65 51.5805 126.863 51.6967L127.008 51.7741C127.356 51.9677 127.608 52.2968 127.695 52.6839C127.762 52.9743 127.772 53.284 127.724 53.5744C127.685 53.8261 127.55 54.0487 127.356 54.2133L127.308 54.252C127.037 54.4746 126.718 54.6295 126.369 54.6972L125.789 54.8134C125.682 54.8327 125.576 54.8424 125.469 54.8424H121.706V54.8618Z" fill="white"/>
<path fill-rule="evenodd" clip-rule="evenodd" d="M134.603 14.3736L116.549 19.0874H124.222C124.551 19.0874 124.88 19.1164 125.209 19.1842L125.741 19.2907C126.379 19.4165 126.989 19.6778 127.54 20.0456C128.073 20.4038 128.527 20.8587 128.885 21.3911C129.253 21.9331 129.504 22.5526 129.63 23.1914L129.737 23.7237C129.804 24.0528 129.833 24.3819 129.833 24.711L129.795 32.3866L134.613 14.364L134.603 14.3736Z" fill="white"/>
<path fill-rule="evenodd" clip-rule="evenodd" d="M149 0L108.48 10.5891H128.875C129.214 10.5891 129.553 10.6084 129.882 10.6471L130.423 10.7052C131.091 10.7826 131.749 10.9375 132.378 11.1601C132.997 11.3827 133.587 11.6731 134.139 12.0216C134.681 12.37 135.184 12.7766 135.638 13.2315H135.648C136.103 13.7058 136.499 14.2091 136.848 14.7511C137.196 15.3125 137.486 15.9029 137.699 16.5224C137.922 17.1516 138.077 17.8097 138.144 18.4776L138.202 19.0196C138.241 19.3584 138.26 19.6875 138.251 20.0263L138.144 40.43L149 0Z" fill="white"/>
<path d="M127.821 57.6203C128.014 57.6203 128.208 57.6687 128.392 57.7752C128.575 57.872 128.72 58.0171 128.827 58.2011C128.933 58.385 128.982 58.5785 128.982 58.7818C128.982 58.9851 128.933 59.1787 128.827 59.3626C128.72 59.5465 128.585 59.6917 128.401 59.7884C128.217 59.8949 128.024 59.9433 127.821 59.9433C127.618 59.9433 127.424 59.8949 127.24 59.7884C127.056 59.682 126.911 59.5465 126.814 59.3626C126.708 59.1787 126.66 58.9851 126.66 58.7818C126.66 58.5785 126.708 58.385 126.814 58.2011C126.921 58.0171 127.066 57.872 127.25 57.7752C127.434 57.6784 127.627 57.6203 127.821 57.6203ZM127.821 57.8139C127.656 57.8139 127.501 57.8526 127.347 57.9397C127.192 58.0268 127.076 58.143 126.989 58.2978C126.902 58.4527 126.853 58.6173 126.853 58.7818C126.853 58.9464 126.892 59.1109 126.979 59.2658C127.066 59.4206 127.182 59.5368 127.337 59.6239C127.492 59.711 127.656 59.7497 127.821 59.7497C127.985 59.7497 128.15 59.711 128.304 59.6239C128.459 59.5368 128.575 59.4206 128.662 59.2658C128.75 59.1109 128.788 58.956 128.788 58.7818C128.788 58.6076 128.75 58.4527 128.662 58.2978C128.575 58.143 128.459 58.0268 128.304 57.9397C128.15 57.8526 127.995 57.8139 127.83 57.8139H127.821ZM127.318 59.4303V58.1817H127.743C127.888 58.1817 127.995 58.1914 128.063 58.2204C128.13 58.2495 128.179 58.2882 128.217 58.3462C128.256 58.4043 128.275 58.4624 128.275 58.5301C128.275 58.6173 128.246 58.7044 128.179 58.7721C128.111 58.8399 128.024 58.8786 127.917 58.8883C127.966 58.9076 127.995 58.927 128.024 58.956C128.072 59.0044 128.14 59.0915 128.208 59.2077L128.363 59.4497H128.121L128.014 59.2561C127.927 59.1012 127.859 59.0044 127.801 58.9657C127.763 58.9367 127.714 58.927 127.637 58.927H127.521V59.4594H127.318V59.4303ZM127.511 58.7237H127.753C127.869 58.7237 127.946 58.7044 127.995 58.6753C128.043 58.6463 128.063 58.5979 128.063 58.5398C128.063 58.5011 128.053 58.4721 128.034 58.443C128.014 58.414 127.985 58.3946 127.946 58.3753C127.908 58.3559 127.84 58.3559 127.743 58.3559H127.511V58.7334V58.7237Z" fill="white"/>
</g>
<defs>
<clipPath id="clip0_93_656">
<rect width="148.621" height="60.1563" fill="white" transform="translate(0.378418)"/>
</clipPath>
</defs>
</svg>
