<svg width="106" height="53" viewBox="0 0 106 53" fill="none" xmlns="http://www.w3.org/2000/svg">
<g clip-path="url(#clip0_102_1312)">
<path d="M6.98755 28.8337C8.365 28.768 9.6703 29.0569 10.8379 29.8775C11.684 30.4749 12.3596 31.2037 12.786 32.1556C13.7436 34.2827 13.7567 36.4163 12.7794 38.5368C11.8873 40.4603 10.2606 41.4451 8.24693 41.7733C7.07938 41.9637 5.88559 41.9046 4.71803 41.5304C3.26187 41.0643 2.12711 40.1846 1.42527 38.8519C0.159327 36.4622 0.152767 34.0135 1.52366 31.6763C2.59938 29.8381 4.28512 28.8928 6.43657 28.8337C6.61367 28.8337 6.79077 28.8337 6.98755 28.8337ZM9.86708 35.0639C9.86708 34.9785 9.86708 34.5781 9.8146 34.1907C9.70965 33.3373 9.34889 32.6151 8.69296 32.0243C7.84682 31.2627 5.72816 31.1774 4.92137 32.4116C4.659 32.8121 4.44254 33.2585 4.31136 33.7115C4.00963 34.7816 4.00963 35.8714 4.3048 36.9546C4.49502 37.6505 4.82954 38.2611 5.41988 38.6878C6.82357 39.6988 8.81103 39.1473 9.51943 37.5586C9.83428 36.8561 9.87364 36.1209 9.86708 35.0573V35.0639Z" fill="white"/>
<path d="M53.3025 36.2455C50.8822 36.2783 48.5208 36.2389 46.2119 36.2718C45.8971 36.8954 46.166 37.3222 46.3694 37.7489C46.5793 38.1953 46.8875 38.5695 47.3533 38.773C47.878 39.0094 48.4159 39.1932 48.9996 39.1801C49.4391 39.1735 49.8786 39.1932 50.3181 39.1538C50.751 39.1144 51.1839 39.0225 51.6102 38.9503C52.9746 39.3245 53.2566 39.6396 53.3419 40.8738C53.2435 40.9395 53.1451 41.038 53.0336 41.0839C50.9346 41.9045 48.7701 42.1343 46.5793 41.55C44.7164 41.0511 43.4111 39.8628 42.788 38.0246C41.9484 35.5496 42.1321 33.1665 43.6669 30.9869C44.5787 29.7002 45.8971 29.024 47.4582 28.8664C48.0682 28.8073 48.6914 28.8073 49.3014 28.8533C51.1839 29.0043 52.5154 29.9562 53.2042 31.7222C53.7617 33.1534 53.8863 34.6174 53.3025 36.2455ZM46.1398 33.8099C46.6186 33.823 47.045 33.8427 47.4779 33.8493C47.9567 33.8558 48.4421 33.869 48.9209 33.8493C49.3407 33.8296 49.7933 33.9806 50.1869 33.6786C50.4033 33.0352 50.1672 32.4772 49.8589 31.9389C49.6752 31.6172 49.3866 31.4202 49.0456 31.3086C47.9305 30.9475 46.9203 31.3611 46.3956 32.3984C46.2579 32.6676 46.1529 32.963 46.0808 33.2584C46.0414 33.4094 46.107 33.5801 46.1332 33.8099H46.1398Z" fill="white"/>
<path d="M72.7968 29.976C73.9053 29.2407 75.0925 28.965 76.3257 28.8534C76.9357 28.8008 77.5588 28.8271 78.1754 28.8337C80.3531 28.8665 82.5242 30.3502 82.7866 33.2125C82.8062 33.4292 82.8128 33.6524 82.8128 33.8756C82.8128 36.1668 82.8128 38.4645 82.8128 40.7557C82.8128 40.9724 82.78 41.1825 82.7603 41.4582C81.9601 41.688 81.173 41.5501 80.4974 41.5501C79.8874 41.3925 79.6775 40.9133 79.2905 40.5588C78.9166 40.6573 78.628 40.9396 78.3 41.1299C76.975 41.8915 75.5648 42.095 74.1086 41.6092C72.8427 41.1825 72.0096 40.0467 71.9375 38.7337C71.8194 36.5935 72.5475 35.5365 74.594 34.9194C74.9679 34.8078 75.3614 34.7225 75.755 34.6897C76.8045 34.5978 77.8605 34.5387 78.91 34.4533C78.9953 34.4533 79.074 34.3942 79.1527 34.3614C79.4348 33.357 79.1986 32.7399 78.2016 31.8995C76.7914 31.5713 76.47 31.5778 74.6006 31.9258C73.433 31.847 72.9673 31.1314 72.8099 29.9825L72.7968 29.976ZM75.6304 37.1647C75.6304 37.4207 75.591 37.7687 75.6369 38.11C75.7419 38.865 76.4437 39.3311 77.1849 39.1342C77.4735 39.0554 77.7687 38.911 77.9983 38.7271C78.5886 38.2413 78.9559 37.5914 79.1002 36.8364C79.133 36.6789 79.0674 36.5016 79.0412 36.3375C78.4378 35.8517 77.7621 35.9567 77.1259 36.0289C76.5356 36.0946 76.0698 36.436 75.6304 37.1712V37.1647Z" fill="white"/>
<path d="M35.3106 37.8737C35.8354 36.088 36.3076 34.4533 36.793 32.8252C37.0161 32.0702 37.2522 31.3087 37.4883 30.5603C37.7966 29.6084 38.4788 29.1357 39.4561 29.0963C40.0661 29.07 40.6761 29.0241 41.2271 29.1226C41.3058 29.2079 41.3517 29.2342 41.3649 29.267C41.378 29.3064 41.3649 29.3589 41.3583 29.3983C39.994 33.2979 38.6362 37.1975 37.2653 41.0971C37.2259 41.2153 37.1341 41.3204 37.0423 41.4779C36.1961 41.6683 35.3172 41.6486 34.4579 41.5173C33.6774 41.4057 33.1198 40.8871 32.8247 40.1321C32.5885 39.515 32.359 38.8979 32.1425 38.2742C31.2045 35.576 30.2665 32.8777 29.3351 30.173C29.2367 29.8907 29.1711 29.5887 29.0728 29.2407C30.0304 28.9781 30.9356 28.965 31.808 29.2932C32.477 29.5361 32.8378 30.1007 33.0346 30.7572C33.5003 32.3131 33.9463 33.8756 34.4055 35.4381C34.5891 36.0683 34.7728 36.7051 34.9696 37.3354C35.0155 37.4864 35.1335 37.6111 35.3041 37.8803L35.3106 37.8737Z" fill="white"/>
<path d="M19.3388 23.6539V38.4318C19.5487 38.6681 19.7192 38.8651 19.9029 39.0686C20.3423 39.108 20.7818 39.1474 21.2934 39.1933C21.3262 39.4165 21.4377 39.6726 21.3984 39.8958C21.1885 41.0643 20.1259 41.8784 18.9387 41.8324C17.266 41.7668 16.1116 40.782 15.882 39.1474C15.7574 38.2742 15.7049 37.4011 15.7115 36.5213C15.7246 33.3964 15.7115 30.278 15.7246 27.1531C15.7246 26.6279 15.7771 26.0961 15.8689 25.584C16.0788 24.4417 16.761 23.7852 17.8826 23.6408C18.309 23.5883 18.7419 23.6408 19.3453 23.6473L19.3388 23.6539Z" fill="white"/>
<path d="M84.5251 13.8786C84.7744 13.0449 84.9646 12.4146 85.1548 11.7909C85.5287 10.5567 86.0994 9.42097 86.8406 8.37056C87.0898 8.01605 87.3194 7.62215 87.8048 7.52368C88.1918 7.5762 88.441 7.79284 88.5657 8.16048C88.5525 8.25239 88.5657 8.35087 88.5329 8.42308C88.3295 8.76447 88.1196 9.09928 87.9032 9.42753C86.6241 11.3511 86.0075 13.465 85.9551 15.7693C85.9091 17.5682 86.3027 19.2619 87.0111 20.8966C87.1161 21.133 87.2079 21.3824 87.2931 21.5925C87.0658 22.0346 86.6788 22.2315 86.1322 22.1834C85.2335 21.0279 85.0105 19.5705 84.5973 18.1918C84.0725 17.7717 83.5412 17.3778 83.0427 16.951C80.255 14.5679 78.3463 11.6202 77.4017 8.06201C77.3427 7.85193 77.2902 7.63528 77.2837 7.41864C77.264 6.74244 77.8609 6.26319 78.5234 6.42075C79.0088 6.53892 79.3892 6.83435 79.7565 7.1626C80.642 7.9701 81.3832 8.89577 82.0326 9.89365C82.7213 10.9637 83.3904 12.0601 84.066 13.1368C84.1775 13.3206 84.2956 13.4978 84.5382 13.8852L84.5251 13.8786Z" fill="white"/>
<path d="M87.6079 20.2597C87.5096 20.0431 87.4177 19.8461 87.3193 19.636C87.4112 19.4653 87.4964 19.3143 87.5751 19.1699C87.7195 19.124 87.8441 19.0583 87.9687 19.0583C88.7624 19.0714 89.5561 19.124 90.3432 19.1108C94.1016 19.0386 97.1255 17.4696 99.4671 14.5481C99.6311 14.3446 99.7951 14.1345 99.9722 13.9442C100.025 13.8851 100.123 13.8588 100.261 13.78C100.418 13.8129 100.622 13.8588 100.871 13.9113C100.95 14.1674 101.028 14.4103 101.107 14.6729C99.946 16.7212 98.1684 18.0539 96.1875 19.1568C96.194 19.5507 96.5023 19.5244 96.7319 19.5704C98.844 20.0037 100.936 20.5354 102.911 21.4217C103.39 21.6384 103.849 21.901 104.288 22.2029C104.728 22.5049 105.088 22.8988 105.115 23.4831C105.01 24.1199 104.583 24.3563 103.993 24.3825C102.275 24.4613 100.569 24.3825 98.8834 23.9492C96.6401 23.3715 94.5608 22.459 92.6848 21.1C92.4749 20.9425 92.2519 20.798 92.0223 20.6339C90.5859 20.5683 89.1166 20.844 87.5948 20.2597H87.6079Z" fill="white"/>
<path d="M90.8741 14.4629C90.1132 15.7431 89.5885 17.0758 88.4603 17.9555C88.0186 17.9161 87.6622 17.6929 87.3911 17.2858C87.5354 17.0495 87.6666 16.7672 87.8568 16.5374C89.2999 14.7911 90.1001 12.756 90.3953 10.5436C90.6576 8.59376 90.3953 6.68334 89.6803 4.84514C89.5688 4.56284 89.4901 4.26741 89.4179 3.97199C89.3983 3.89321 89.4507 3.8013 89.4835 3.6503C89.6606 3.5387 89.8771 3.40083 90.087 3.26953C90.2378 3.32862 90.4018 3.34175 90.4674 3.42709C90.6576 3.66343 90.8675 3.9129 90.9594 4.18863C91.2414 5.01583 91.5891 5.84958 91.7006 6.7096C91.8514 7.83222 92.1007 8.9614 91.8908 10.1103C91.8908 10.1365 91.9367 10.1694 92.0023 10.2416C92.1663 10.0972 92.3303 9.96585 92.4877 9.81485C93.6421 8.73163 94.7637 7.60901 95.951 6.56517C96.6069 5.98745 97.3547 5.5082 98.0893 5.02896C98.4107 4.81888 98.7977 4.67445 99.1782 4.57597C99.6111 4.4578 100.057 4.47093 100.431 4.89109C100.687 5.41629 100.588 5.96775 100.28 6.47983C99.9456 7.04442 99.5848 7.60244 99.1978 8.13421C97.394 10.5961 95.1311 12.4999 92.3565 13.7933C91.8777 14.0165 91.3988 14.2331 90.8675 14.476L90.8741 14.4629Z" fill="white"/>
<path d="M69.1301 23.0828C69.3334 22.3147 69.9106 21.993 70.5469 21.7829C71.5898 21.4416 72.6787 21.2512 73.7741 21.2118C75.0466 21.1658 76.3256 21.179 77.5981 21.1658C78.0311 21.1658 78.4705 21.1658 79.0018 21.1658C78.6804 20.5553 78.1688 20.2664 77.8277 19.8266C77.4473 19.3473 77.0406 18.8812 76.6864 18.3823C76.3584 17.9161 76.0567 17.4238 75.8009 16.9183C75.5451 16.4127 75.3549 15.8744 75.1581 15.3952C75.3724 15.0494 75.6457 14.7824 75.978 14.5942C76.1485 14.7255 76.3978 14.8437 76.529 15.0407C76.7454 15.3689 76.8766 15.7497 77.0537 16.1042C78.7067 19.3342 81.2845 21.435 84.7806 22.3935C85.161 22.4985 85.5611 22.5117 85.9481 22.5839C86.3351 22.6561 86.7155 22.7546 87.0763 22.8399C87.2512 23.2513 87.2141 23.6386 86.9648 24.0019C86.1908 24.1113 84.8068 23.8903 82.8128 23.3388C81.5337 23.7262 80.3334 24.1595 79.1068 24.4549C76.9947 24.9604 74.8564 25.0917 72.7049 24.6912C71.9309 24.5468 71.1504 24.4221 70.3895 24.2186C69.8385 24.0741 69.2941 23.8378 69.1235 23.0828H69.1301Z" fill="white"/>
<path d="M63.0562 29.1817C63.8105 28.9979 64.4533 29.0766 64.9715 29.1554C65.8045 29.4508 66.0931 30.1336 66.5588 30.731C67.0639 29.9695 67.5689 29.3195 68.4413 29.0832C69.176 28.8863 69.8909 28.7746 70.6649 29.0438C70.9929 29.8316 70.8027 30.5932 70.5731 31.4597C70.3566 31.6633 70.0746 31.9324 69.8647 32.1294C69.1956 32.2607 68.6381 32.3657 68.0806 32.4839C67.4902 32.6086 67.0376 32.9303 66.6966 33.6131C66.6834 33.961 66.6506 34.4403 66.6441 34.9195C66.6375 36.2391 66.6441 37.5586 66.6441 38.8782C66.6441 39.3246 66.6244 39.7579 66.4276 40.165C66.0341 40.979 65.4175 41.4845 64.4992 41.5502C64.0663 41.583 63.6268 41.5502 63.148 41.5502C63.089 41.281 63.0102 41.0709 63.0102 40.8674C63.0037 37.1713 63.0102 33.4752 63.0102 29.7857C63.0102 29.615 63.043 29.4443 63.0693 29.162L63.0562 29.1817Z" fill="white"/>
<path d="M27.1314 29.1094C27.1642 29.4967 27.2035 29.7528 27.2035 30.0088C27.2035 32.9171 27.2101 35.8254 27.2035 38.7272C27.2035 39.1211 27.1576 39.5215 27.0592 39.8957C26.81 40.8608 26.0622 41.491 25.0849 41.5567C24.652 41.5895 24.219 41.5567 23.7205 41.5436C23.6746 41.2416 23.5959 40.9921 23.5959 40.7426C23.5894 37.703 23.5959 34.6634 23.5894 31.6238C23.5894 31.1774 23.6418 30.7507 23.8255 30.3371C24.1338 29.628 24.6848 29.2144 25.426 29.116C25.9376 29.0438 26.4689 29.1028 27.1445 29.1028L27.1314 29.1094Z" fill="white"/>
<path d="M57.7301 29.1292C58.0909 29.116 58.5303 29.0832 58.9633 29.0767C59.1732 29.0767 59.3896 29.1226 59.6717 29.1489C59.7045 29.5231 59.7569 29.8579 59.7569 30.1993C59.7635 33.0616 59.7307 35.924 59.7766 38.7863C59.7963 40.0205 59.3503 40.9134 58.1827 41.5108C57.9007 41.5305 57.553 41.5633 57.2054 41.5633C56.9036 41.5633 56.6019 41.5239 56.2412 41.4977C56.2018 41.2088 56.1428 40.9528 56.1428 40.7033C56.1362 37.7097 56.1559 34.716 56.1296 31.7158C56.1165 30.521 56.6085 29.6938 57.7301 29.116V29.1292Z" fill="white"/>
<path d="M106 18.1197C105.902 18.7171 105.666 19.2226 105.128 19.5312C104.524 19.8791 103.888 19.9185 103.226 19.7412C102.629 19.5837 102.052 19.3867 101.533 19.0388C101.225 18.8353 101.015 18.5727 101.068 18.0803C101.441 17.345 102.058 16.7541 102.898 16.3996C104.216 15.8416 105.469 16.3996 105.915 17.752C105.954 17.8768 105.974 18.0081 106 18.1262V18.1197Z" fill="white"/>
<path d="M92.9406 3.42049C93.0193 3.02003 93.0915 2.67208 93.1505 2.37665C93.5507 1.51007 94.1738 1.01113 95.1708 0.866699C95.466 0.965174 95.8398 1.08334 96.1285 1.17526C96.6335 1.59542 96.8369 2.05497 96.8369 2.62612C96.8369 3.18415 96.627 3.65683 96.2924 4.07699C95.8202 4.67441 95.2233 5.12083 94.5411 5.45565C94.2459 5.60008 93.9442 5.60008 93.6228 5.42282C93.0784 4.85823 93.0981 4.08356 92.9341 3.42049H92.9406Z" fill="white"/>
<path d="M74.3123 19.0847C73.6629 19.7018 72.9151 19.623 72.2461 19.8331C71.8132 19.7477 71.3803 19.6886 70.9539 19.577C70.5669 19.4786 70.2258 19.275 69.97 18.9534C69.5305 18.3888 69.4977 17.752 69.8651 17.102C70.0881 16.7081 70.4095 16.4193 70.849 16.2223C71.7869 16.0057 72.6659 16.137 73.3743 16.8788C73.9581 17.4894 74.4894 18.1262 74.3123 19.0912V19.0847Z" fill="white"/>
<path d="M83.8886 4.03761C84.8528 4.52342 85.2464 5.27183 85.3644 6.25002C85.2529 7.1363 84.9119 7.97006 84.3215 8.63312C83.8427 8.87603 83.4885 8.76442 83.1605 8.48869C82.2947 7.75341 81.6912 6.86713 81.5601 5.70513C81.9864 4.16235 82.2816 3.95227 83.8886 4.04418V4.03761Z" fill="white"/>
<path d="M27.7017 52.1789C27.131 52.5334 26.6128 52.7435 26.0094 52.6844C25.3993 52.6253 24.914 52.3758 24.5991 51.8375C24.0022 50.8265 23.9169 49.7695 24.3499 48.6666C24.7303 47.695 25.4846 47.2354 26.4751 47.1304C26.8621 47.091 27.2556 47.1238 27.6426 47.1238C28.0362 46.5133 27.7017 45.8436 27.9509 45.279C28.1018 45.0952 28.2658 44.977 28.5019 45.1543C28.5412 45.2331 28.6134 45.3053 28.62 45.3841C28.6331 47.6293 28.6462 49.8746 28.6396 52.1264C28.6396 52.2839 28.5412 52.4415 28.5019 52.5531C28.1083 52.6844 27.9771 52.3824 27.7082 52.1789H27.7017ZM27.8 51.1219C27.8591 50.0912 27.8984 49.0474 27.7804 47.9707C27.4458 47.8657 27.1572 47.7737 26.8686 47.6818C26.4751 47.8 26.1012 47.9182 25.7929 48.0101C25.2157 48.4565 24.9336 48.9817 24.9008 49.6316C24.8615 50.3866 24.8812 51.135 25.5371 51.8047C25.7732 51.89 26.0946 52.0082 26.3439 52.1001C26.9736 51.9688 27.4327 51.7456 27.8 51.1153V51.1219Z" fill="white"/>
<path d="M23.3923 27.7898C23.0774 26.6212 23.4054 25.6824 23.9301 24.7961C24.2253 24.2972 24.4286 24.2118 25.5044 23.8901C26.3571 24.0214 26.908 24.5072 27.0196 25.4132C27.1311 26.3258 26.685 27.153 25.8323 27.5731C25.2354 27.8685 24.5926 28.013 23.9236 27.9867C23.7596 27.9867 23.6022 27.8685 23.3923 27.7898Z" fill="white"/>
<path d="M56.4447 27.8029C56.1561 26.746 56.3856 25.8794 56.8579 25.0588C57.2449 24.376 57.4351 24.2644 58.524 23.9033C58.6092 23.9099 58.7011 23.9033 58.7798 23.9296C59.58 24.1659 60.0457 24.6846 60.0851 25.538C60.131 26.4112 59.7702 27.107 59.0159 27.501C58.2485 27.908 57.422 28.2165 56.4447 27.8029Z" fill="white"/>
<path d="M19.1419 52.5399H18.5384C18.3088 51.6142 18.276 48.6665 18.4794 47.3404C18.5974 47.2944 18.7417 47.2419 18.9188 47.1697C19.0238 47.3666 19.1025 47.5176 19.1812 47.6752C19.2534 47.6752 19.3386 47.6949 19.3977 47.6621C20.058 47.2857 20.7576 47.1281 21.4966 47.1894C22.3231 47.5439 22.6052 48.266 22.7495 49.067C22.7954 49.323 22.7823 49.5922 22.7823 49.8548C22.7757 50.7279 22.8085 51.6011 22.756 52.5202C22.533 52.5596 22.3756 52.5858 22.1723 52.6252C22.1132 52.4283 22.0214 52.2707 22.0214 52.1131C22.0017 51.2794 22.0083 50.4456 22.0017 49.6119C22.0017 49.0276 21.8902 48.4761 21.4114 48.0166C20.6833 47.708 20.0011 47.7605 19.4174 48.5024C19.0697 49.776 19.4895 51.1612 19.155 52.5399H19.1419Z" fill="white"/>
<path d="M34.1365 52.5334C34.0316 52.5596 33.907 52.5859 33.7889 52.6187C33.6052 52.4808 33.4347 52.3561 33.3035 52.2576C32.805 52.4086 32.359 52.6187 31.8998 52.6712C30.811 52.7894 30.2665 52.2905 30.1944 51.1875C30.1878 51.0562 30.2141 50.9249 30.2272 50.8133C30.4174 50.3144 30.7847 50.019 31.198 49.8417C31.9195 49.6316 32.6476 49.8548 33.3232 49.5725C33.4806 49.008 33.4609 48.5156 33.0608 48.0626C32.3458 47.6884 31.6178 47.8591 30.8306 48.0429C30.7847 47.905 30.7323 47.7606 30.6798 47.6096C31.4013 47.0056 32.1819 47.0253 32.9624 47.2157C33.6708 47.3864 34.0513 47.9116 34.189 48.6206C34.4251 49.8351 34.4055 51.0628 34.294 52.2905C34.2874 52.3692 34.2087 52.4415 34.1562 52.5334H34.1365ZM31.0405 51.739C31.3292 51.8769 31.5915 52.0082 31.808 52.1132C33.2641 51.6733 33.4675 51.4304 33.2773 50.3997C31.9326 50.1831 31.7817 50.2159 31.0077 50.984C31.0209 51.1875 31.034 51.4436 31.0471 51.739H31.0405Z" fill="white"/>
<path d="M16.6889 52.4021C16.2035 52.7829 16.0133 52.5072 15.8165 52.2774C15.7378 52.2774 15.646 52.2511 15.5804 52.2774C15.2983 52.389 15.0294 52.5662 14.7408 52.6319C13.5995 52.8879 12.7402 52.3299 12.4844 51.1942C12.4188 50.8987 12.3794 50.5902 12.3466 50.2816C12.2351 49.3231 12.2417 48.3646 12.3401 47.4587C12.5828 47.1632 12.7992 47.091 13.1206 47.4193C13.1403 47.6753 13.1862 48.0167 13.1928 48.3581C13.2125 49.1459 13.1928 49.9402 13.2321 50.728C13.2649 51.4108 13.5798 51.8966 14.3866 52.0542C14.6817 51.9557 15.0491 51.831 15.3049 51.7456C15.7837 51.3058 15.9018 50.8528 15.8952 50.3473C15.8821 49.6448 15.8887 48.9424 15.8952 48.2399C15.8952 47.9379 15.928 47.6359 15.9411 47.3865C16.1576 47.1501 16.3478 47.1173 16.6364 47.3471C16.7676 48.9752 16.6561 50.6821 16.6954 52.3824L16.6889 52.4021Z" fill="white"/>
<path d="M46.7763 48.6797C46.8484 49.0276 46.9402 49.4609 47.0321 49.8942C46.9468 50.3275 46.855 50.7542 46.7828 51.1022C46.4417 51.8572 45.9432 52.3233 45.1627 52.645H43.7655C42.9915 52.3561 42.4996 51.8834 42.1388 51.1284C42.0667 50.7936 41.9749 50.3669 41.8765 49.9139C41.9617 49.5003 42.0536 49.0736 42.1257 48.6994C43.0637 46.6183 45.7792 46.5723 46.7697 48.6731L46.7763 48.6797ZM44.5133 52.1132C45.8186 51.6339 45.8383 51.6011 46.2122 49.9927C46.081 49.3165 46.0679 48.5878 45.3595 48.0035C45.1102 47.9247 44.7429 47.8065 44.428 47.7146C43.1227 48.2136 42.6767 48.7979 42.7423 49.9599C42.7751 50.4785 42.8472 51.0103 43.1949 51.4501C43.5097 51.8637 43.9492 52.0344 44.5133 52.1132Z" fill="white"/>
<path d="M8.4044 52.6845C7.28276 52.632 6.29887 51.7851 6.14144 50.6559C6.06929 50.1438 6.06929 49.5924 6.15456 49.0803C6.33166 48.0036 7.28932 47.183 8.33881 47.1173C9.46044 47.0451 10.464 47.6557 10.8445 48.6601C11.1331 49.4217 11.1987 50.1766 10.9035 50.971C10.464 52.1593 9.65722 52.737 8.39784 52.6779L8.4044 52.6845ZM8.60774 47.741C7.93432 47.9292 7.38552 48.3319 6.96136 48.949C6.84329 49.914 6.68586 50.9185 7.58449 51.7851C7.89933 51.8901 8.26665 52.0083 8.60118 52.1199C9.13248 51.9755 9.59819 51.8245 9.86712 51.3846C10.1492 50.9316 10.3197 50.4327 10.3132 49.8943C10.3066 49.356 10.1426 48.8571 9.854 48.4107C9.56539 47.9642 9.07345 47.8723 8.60774 47.7476V47.741Z" fill="white"/>
<path d="M49.0193 52.5334C48.8422 52.5597 48.7176 52.5728 48.5995 52.5925C48.5536 52.5465 48.5274 52.5137 48.5012 52.4809C48.4749 52.4481 48.4421 52.4087 48.4356 52.3693C48.3044 50.8856 48.3634 48.0561 48.5471 47.2748C48.9275 47.0516 49.0521 47.5309 49.3801 47.5768C49.9639 47.2289 50.6132 46.986 51.4135 47.196C52.2465 47.5834 52.6466 48.3187 52.6663 49.2706C52.686 50.321 52.6663 51.378 52.6663 52.5006C52.4367 52.54 52.2465 52.5794 52.0825 52.6056C52.0038 52.4677 51.9251 52.3955 51.9251 52.3168C51.9054 51.3517 51.8923 50.3866 51.8792 49.4216C51.8792 48.8701 51.7677 48.3712 51.2823 48.0167C50.1279 47.7475 50.1082 47.7541 49.2817 48.5419C48.9472 49.822 49.3998 51.2138 49.0128 52.5334H49.0193Z" fill="white"/>
<path d="M89.5692 23.1023C90.3695 26.5883 89.5102 29.4966 87.444 32.1948C87.3653 32.0242 87.2866 31.9388 87.3063 31.8732C87.9557 29.0962 88.6116 26.3257 89.2741 23.5487C89.3003 23.4305 89.4118 23.3321 89.5692 23.1023Z" fill="white"/>
<path d="M3.91802 52.553C3.69501 52.5727 3.53102 52.5858 3.36704 52.599C3.30145 52.4414 3.20962 52.3298 3.20306 52.2116C3.18994 50.4916 3.18994 48.7781 3.18994 47.0581C3.18994 46.5132 3.30801 46.0143 3.68845 45.5153C4.27878 44.9639 5.00686 44.8523 5.83333 45.1345C5.83989 45.2921 5.84645 45.4168 5.85957 45.6138C5.3873 45.6926 4.92815 45.7648 4.51492 45.8304C3.99017 46.3097 3.93114 46.8546 4.04921 47.4454C4.44277 47.8393 5.00031 47.4914 5.49881 47.8065C5.49225 47.9115 5.47913 48.0625 5.46602 48.2529C4.99375 48.3251 4.56739 48.3842 4.09512 48.4564C3.83275 49.776 4.09512 51.1022 3.92458 52.553H3.91802Z" fill="white"/>
<path d="M38.354 52.0147C38.4131 52.1394 38.4787 52.2182 38.4787 52.2904C38.4787 52.3626 38.4 52.4348 38.3409 52.5333C38.2425 52.5661 38.1179 52.6383 37.9933 52.6449C37.5997 52.658 37.2062 52.6449 36.9044 52.6449C36.2682 52.3692 36.0386 51.9162 35.9796 51.3581C35.9533 51.0955 35.9468 50.8329 35.9468 50.5703C35.9468 49.2967 35.9468 48.0166 35.9468 46.7429C35.9468 46.4869 35.9796 46.2243 35.9927 46.0274C36.2157 45.7713 36.4059 45.7582 36.688 45.9814C36.7273 46.29 36.7798 46.6642 36.8388 47.104C37.3701 47.15 37.8424 47.1894 38.2753 47.2288C38.3606 47.3338 38.4459 47.3929 38.4655 47.4651C38.4852 47.5373 38.4393 47.6227 38.4065 47.7868C37.9277 47.8459 37.4226 47.9049 36.9503 47.9575C36.8782 48.0756 36.7929 48.1413 36.7929 48.2201C36.7273 49.3624 36.7011 50.4981 36.806 51.5682C37.0356 51.9096 37.298 52.0672 37.6194 52.0737C37.8686 52.0737 38.1245 52.0343 38.354 52.0081V52.0147Z" fill="white"/>
<path d="M40.3809 52.6123C40.1775 52.5729 40.0594 52.5466 39.9479 52.5269C39.8889 52.435 39.8168 52.3628 39.8102 52.284C39.7118 51.3584 39.7315 48.3778 39.8364 47.4259C39.9873 47.2618 40.1447 47.1042 40.3809 47.2946C40.5711 48.2728 40.5842 51.3452 40.3809 52.6123Z" fill="white"/>
<path d="M40.6303 46.0142H39.8038C39.7579 45.7976 39.7251 45.6334 39.6792 45.4299C39.8497 45.2921 40.0072 45.1673 40.1318 45.0688C40.6303 45.187 40.768 45.4496 40.6237 46.0142H40.6303Z" fill="white"/>
</g>
<defs>
<clipPath id="clip0_102_1312">
<rect width="105.513" height="51.8308" fill="white" transform="translate(0.487305 0.866699)"/>
</clipPath>
</defs>
</svg>
